<?xml version="1.0" standalone="no"?>
<!DOCTYPE svg PUBLIC "-//W3C//DTD SVG 1.1//EN" "http://www.w3.org/Graphics/SVG/1.1/DTD/svg11.dtd" >
<svg>
<metadata>
Created by FontForge 20090622 at Tue Aug 30 19:43:41 2016
 By deploy user
</metadata>
<defs>
<font id="Liana" horiz-adv-x="1188" >
  <font-face 
    font-family="Liana"
    font-weight="400"
    font-stretch="normal"
    units-per-em="1000"
    panose-1="2 0 5 7 5 0 0 2 0 2"
    ascent="800"
    descent="-200"
    x-height="171"
    cap-height="804"
    bbox="-679 -570 1835.2 1071"
    underline-thickness="50"
    underline-position="-100"
    unicode-range="U+0020-U+2122"
  />
<missing-glyph horiz-adv-x="500" 
 />
    <glyph glyph-name=".notdef" horiz-adv-x="500" 
 />
    <glyph glyph-name="exclam" unicode="!" horiz-adv-x="343" 
d="M589 739q0 -16 -43 -50q-4 -2 -85 -95l-193 -223q-51 -58 -81.5 -96t-43.5 -56q-15 -24 -17 -53q0 -11 3 -29q2 -8 3 -14.5t2 -11.5q0 -11 -11 -16q-9 -6 -17 -6q-17 0 -18 38q0 61 153 259l271 351q3 6 5 11.5t6 10.5q4 10 29 12q35 0 37 -32zM71 -8q0 -12 -19 -24
q-17 -9 -28 -9q-40 0 -41 30q0 13 15 21q12 9 31 9q42 0 42 -27z" />
    <glyph glyph-name="quotedbl" unicode="&#x22;" horiz-adv-x="179" 
d="M437 645q0 -22 -10 -36q0 -1 -41 -51q-23 -20 -38.5 -29t-25.5 -11q-7 0 -7 14q0 8 13 17q8 6 14.5 12.5t13.5 14.5q18 22 30 70q3 15 26 17q25 0 25 -18zM347 645q0 -22 -9 -35q-3 -6 -43 -52q-23 -20 -38.5 -29t-25.5 -11q-6 0 -6 14q0 6 12 17q10 6 16.5 12.5
t11.5 14.5q11 12 18 29t12 41q3 15 26 17q26 0 26 -18z" />
    <glyph glyph-name="numbersign" unicode="#" horiz-adv-x="551" 
d="M597 386q0 -18 -15 -25h-25q-33 0 -52 0.5t-25 2.5q-6 3 -67 3l-32 -39l-53 -65l152 -7q0 -19 -15 -24h-7.5t-16.5 -1h-63t-73 2l-93.5 -122t-46.5 -67l-22 3l53 77t82 111q-32 1 -65.5 1.5t-71.5 0.5q-52 -54 -89 -98t-60 -82l-23 2q30 48 65 92t74 88l-81 3
q-39 0 -41 5q0 14 36 22h112l85 108l-84 2q-39 0 -40 7q0 15 35 21l111 -3l109 136l31 -14l-102 -123l127 -5l121 146l31 -14l-115 -132l154 -12v0zM257 375l-86 -106l128 -6l82 106z" />
    <glyph glyph-name="dollar" unicode="$" horiz-adv-x="373" 
d="M544 627q0 -28 -49 -48q-39 -12 -39 0q0 1 25 17q24 12 27 31q0 29 -42 29q-67 0 -144 -34q-91 -39 -91 -91q0 -27 35 -37l109 -35q52 -16 53 -56q0 -46 -28 -75q-11 -10 -29 -20t-43 -21q-29 -11 -58.5 -16.5t-60.5 -6.5q-22 0 -47 3l-63 -110l-13 11l59 104
q-17 6 -30 16t-24 23l11 9q30 -24 58 -34q10 -1 25.5 -2t38.5 -1q58 0 117 25q68 30 69 72q0 23 -19 30l-145 46q-53 15 -54 68q0 95 271 150l58 91l12 -9l-51 -82q62 -3 62 -47z" />
    <glyph glyph-name="percent" unicode="%" horiz-adv-x="708" 
d="M881 686l-137 -95l-100 -70q-72 -52 -130 -98t-106 -89l-111.5 -100l-120.5 -113l-77.5 -75.5t-30.5 -27.5q-12 -36 -23 -50q-12 -13 -36 -13q-7 0 -14 4q-7 3 -9 7q0 5 8 18t27 36q35 42 68 72l358 300t286 219q-105 -40 -167 -59.5t-84 -20.5q-27 0 -46 3.5t-32 11.5
q-110 -91 -168 -91q-65 0 -68 48q0 68 65 131q63 60 141 63l18 -8q-74 -9 -134 -60q-56 -47 -59 -97q0 -21 17 -37q18 -14 42 -14q30 0 80 34q21 15 34.5 26t19.5 22q-5 26 -3.5 49.5t9.5 44.5q15 43 43 44q27 0 28 -26q0 -30 -11.5 -58t-36.5 -54q12 -8 25 -11t28 -4
q27 0 83.5 18.5t144.5 56.5l37.5 19.5l38.5 19.5q26 13 44 19.5t30 7.5q12 0 29 -3zM665 208q0 -44 -91 -125q-93 -78 -155 -80q-22 0 -37 18q-14 19 -16 46q0 40 54 94q47 45 113 85l9 -6l-34.5 -23.5l-24.5 -16.5l-31.5 -26t-25.5 -25q-26 -31 -26 -57q0 -11 3 -21.5
t10 -19.5q11 -15 36 -17q45 0 110 51q66 54 69 108q0 52 -56 46q0 19 18 19q17 0 31 -3.5t25 -11.5q16 -12 19 -35zM449 661q0 17 -11 18q-11 0 -19 -14q-4 -6 -5.5 -13t-3.5 -13q0 -56 2 -59q37 46 37 81z" />
    <glyph glyph-name="ampersand" unicode="&#x26;" horiz-adv-x="918" 
d="M869 256q0 -6 -17 -12q-8 -2 -16 -5t-17 -6q-10 -3 -35.5 -6.5t-67.5 -6.5l-37.5 -49.5l-43.5 -58.5q22 -28 61 -61q20 -15 38.5 -30.5l36.5 -31.5l-21 -17l-26 13.5t-27 14.5q-31 19 -57 38.5t-47 41.5q-95 -65 -157 -91q-67 -26 -153 -26q-97 0 -155 45q-59 43 -61 111
q0 69 58 128q59 61 210 151q-9 28 -13 60t-5 67q0 82 108 183q107 100 201 101q38 0 63 -25q26 -23 27 -57q0 -67 -138 -184l-88.5 -68t-102.5 -71q43 -111 227 -275q16 14 35 36.5t41 56.5q-31 0 -33 14q0 15 27 29q6 2 46 4q139 0 139 -13zM671 708q0 62 -86 63
q-41 0 -81 -18.5t-78 -56.5q-74 -74 -76 -156q0 -27 12 -69q3 -14 6.5 -25.5t8.5 -24.5l81.5 55.5l83.5 56.5q129 96 129 175zM574 97l-47 40t-44 42q-97 100 -143 198q-121 -75 -169 -130q-47 -56 -48 -120q0 -65 43 -106q43 -40 117 -40q91 0 145 22q27 11 63.5 34.5
t82.5 59.5z" />
    <glyph glyph-name="quotesingle" unicode="'" horiz-adv-x="0" 
d="M269 643q0 -22 -6 -35q-5 -9 -41 -51q-20 -17 -34.5 -25t-26.5 -10q-5 0 -8 15q0 5 15 19l14.5 12.5t8.5 9.5q5 8 8.5 15t7.5 17q2 8 4.5 16.5t4.5 17.5q6 15 27 18q26 0 26 -19z" />
    <glyph glyph-name="parenleft" unicode="(" horiz-adv-x="332" 
d="M606 743l-140.5 -109t-66.5 -54q-44 -41 -89 -97.5t-92 -131.5q-45 -71 -75 -126t-46 -94q-17 -48 -29.5 -105t-18.5 -125q-13 13 -13 18q0 238 115 434q64 109 142 185q30 29 67 58t82 60l78.5 50l79.5 51l6 -14v0z" />
    <glyph glyph-name="parenright" unicode=")" horiz-adv-x="332" 
d="M345 716q0 -237 -115 -433q-64 -109 -142 -186q-30 -29 -67.5 -58t-82.5 -60l-78.5 -50l-79.5 -51l-5 14q177 137 206 164q45 41 90 97t92 131q45 71 75 126t46 95q17 47 29.5 104t18.5 125q13 -13 13 -18z" />
    <glyph glyph-name="asterisk" unicode="*" horiz-adv-x="167" 
d="M421 713q0 -16 -67 -42q37 -24 38 -39q0 -10 -9 -10q-13 0 -43 33v-50q0 -20 -18 -20q-12 0 -15 30v23q-24 -12 -42 -17.5t-29 -7.5q-5 0 -5 6q0 7 7 14l27.5 15.5t39.5 24.5q-35 32 -35 47q0 10 11 10q6 0 17 -11q5 -5 9.5 -10t9.5 -10q7 30 22 31q9 0 2 -37
q50 26 70 27q10 0 10 -7z" />
    <glyph glyph-name="plus" unicode="+" horiz-adv-x="486" 
d="M487 257q0 -18 -15 -25h-8t-17 -2q-33 0 -60 1t-49 3q-21 2 -45.5 3t-54.5 1q-51 -54 -88 -98.5t-60 -81.5l-24 1q61 93 140 180l-151 2q-39 0 -40 6q0 16 36 22h180l130 123l31 -13l-125 -110l220 -12v0z" />
    <glyph glyph-name="comma" unicode="," horiz-adv-x="268" 
d="M89 48q0 -22 -10 -35q-1 -2 -11 -14l-32 -37q-45 -41 -63 -42q-6 0 -7 15q0 7 15 18q21 16 26 24q10 14 29 73q5 14 27 17q26 0 26 -19z" />
    <glyph glyph-name="hyphen" unicode="-" horiz-adv-x="372" 
d="M352 192q0 -10 -28 -10q-10 0 -27 4q-8 2 -14 3t-11 3q-26 0 -51 -2.5t-51 -7.5q-23 -4 -35 -5.5t-15 -3.5q-31 0 -45 13q-30 20 -32 32q0 4 8 4q3 0 10.5 -1t19.5 -3q11 -2 20 -2h15q2 0 16.5 1.5t41.5 5.5q27 3 49 4.5t42 3.5q31 0 61 -15q26 -14 26 -24z" />
    <glyph glyph-name="hyphen" unicode="&#xad;" horiz-adv-x="372" 
d="M352 192q0 -10 -28 -10q-10 0 -27 4q-8 2 -14 3t-11 3q-26 0 -51 -2.5t-51 -7.5q-23 -4 -35 -5.5t-15 -3.5q-31 0 -45 13q-30 20 -32 32q0 4 8 4q3 0 10.5 -1t19.5 -3q11 -2 20 -2h15q2 0 16.5 1.5t41.5 5.5q27 3 49 4.5t42 3.5q31 0 61 -15q26 -14 26 -24z" />
    <glyph glyph-name="period" unicode="." horiz-adv-x="265" 
d="M108 23q0 -34 -47 -35q-42 0 -43 35q0 35 44 35q17 0 32 -11q13 -8 14 -24z" />
    <glyph glyph-name="slash" unicode="/" horiz-adv-x="547" 
d="M833 674q-16 -22 -37 -37l-17.5 -11l-20.5 -13l-191 -135t-168 -131l-109 -93.5l-124 -113.5l-90 -87.5t-44 -46.5t-15 -43q-13 -14 -25 -20.5t-26 -7.5q-9 0 -10 10v8t1 16q0 45 434 395q88 72 198 150l91.5 64.5l93.5 65.5q3 1 3 15q0 9 15 11q39 9 41 4z" />
    <glyph glyph-name="zero" unicode="0" horiz-adv-x="836" 
d="M872 552q0 -115 -97 -260q-93 -134 -227 -230q-139 -97 -257 -99q-76 0 -129 60q-51 60 -54 144q0 112 78 229q29 42 61.5 77t70.5 64q93 72 212 118v-11q-164 -57 -273 -181q-54 -62 -80.5 -123.5t-26.5 -127.5q0 -86 53 -151t126 -65q105 0 227 88q113 81 193 203
q80 125 82 231q0 54 -42 93q-43 36 -106 37q-58 0 -113 -21q-56 -20 -138 -73q-5 4 -5 11q2 9 13 15q171 101 280 101q152 0 152 -129z" />
    <glyph glyph-name="one" unicode="1" horiz-adv-x="500" 
d="M577 640q0 -18 -187 -253l-300 -378l80 1l-25 -33l-145 -26q-11 -2 -16.5 -2.5t-7.5 -0.5q-34 0 -37 18q0 14 37 23l92 19l271 334.5t192 253.5q-68 9 -68 18q0 13 43 38q41 20 48 21q8 0 23 -33z" />
    <glyph glyph-name="two" unicode="2" horiz-adv-x="829" 
d="M893 607q0 -51 -56 -132q-83 -122 -228 -223l-124.5 -76l-124.5 -78q218 -98 298 -102q8 -4 4 -11q-24 -3 -48 -4.5t-48 -3.5q-91 0 -267 83q-152 -79 -230 -79q-39 0 -63 18q-23 17 -23 46q0 45 43 78q41 31 99 34q26 0 56 -5t66 -17l42 -13.5t43 -14.5q101 43 255 154
q52 37 95.5 78t81.5 86q72 93 73 153q0 39 -28 63q-27 26 -73 26q-133 0 -290 -174l-8 6q96 109 173 153q37 23 78.5 33t87.5 12q114 0 116 -90zM263 78q-102 52 -164 53q-47 0 -69 -16.5t-24 -50.5q0 -24 21 -41q18 -13 54 -15q28 0 73 17t109 53z" />
    <glyph glyph-name="three" unicode="3" horiz-adv-x="662" 
d="M721 614q0 -47 -44 -88q-23 -23 -68 -52.5t-111 -68.5q62 -6 97 -44q33 -35 33 -79q0 -63 -63 -136q-32 -39 -74 -70t-93 -57q-57 -28 -114.5 -41.5t-117.5 -14.5q-125 0 -211 110l7 1q36 -27 65 -45t53 -28q45 -16 109 -17q145 0 266 88t121 195q0 51 -35 86
q-34 36 -84 34q-148 -58 -177 -58q-35 0 -35 32q0 14 37 33q38 17 70 18h23.5t27.5 -1q17 -1 30.5 -1t24.5 -1q204 93 204 186q0 37 -28 50q-24 12 -95 14q-80 0 -157 -38q-13 -7 -50.5 -30.5l-103.5 -65.5l-2 7l36.5 29l37.5 30q31 23 62 40.5t63 30.5q45 17 90.5 24.5
t94.5 9.5q110 0 111 -82zM394 390q-10 3 -19 4t-20 1q-10 0 -23 -4t-31 -12q-32 -15 -33 -24q0 -3 2.5 -3.5t8.5 -2.5q14 0 57 17q19 6 33 11.5t25 12.5z" />
    <glyph glyph-name="four" unicode="4" horiz-adv-x="764" 
d="M826 258q0 -12 -8 -15q-8 0 -18 5q-3 3 -6 3.5t-8 1.5q-10 0 -46 -2.5t-101 -7.5q-64 -4 -97 -5.5t-38 -3.5q-11 -14 -53 -60l-117 -127q-7 -7 -10 -22l-5 -30q-7 -32 -48 -32q-23 0 -23 13q0 17 45 56q10 8 27.5 27.5l44.5 49.5l69.5 80.5l33.5 38.5q-227 -12 -230 -12
q-146 0 -146 66q0 33 39 73q20 21 58 50t93 67q69 49 139 90t142 78q141 71 199 71q23 0 37 -14q15 -14 15 -34q0 -18 -11 -33q-8 -8 -15.5 -17.5t-15.5 -18.5l-250 -323q98 12 160 18t91 7q19 0 36 -11q8 -5 11.5 -11.5t5.5 -15.5zM766 645q0 35 -52 36q-103 0 -422 -224
q-170 -120 -170 -145q0 -53 123 -54h23.5t26.5 1l195 11l81.5 100.5l82.5 101.5q109 140 112 173z" />
    <glyph glyph-name="five" unicode="5" horiz-adv-x="669" 
d="M783 715q-3 -7 -9 -16t-17 -20q-14 -8 -24 -13t-15 -9q-8 -3 -16.5 -5t-19.5 -4q-6 -2 -268 -24q-10 -10 -58.5 -72l-139.5 -178q81 30 145.5 45.5t115.5 15.5q57 0 94 -40q18 -20 26.5 -44t10.5 -55q0 -116 -145 -224q-76 -57 -157.5 -84t-169.5 -28q-110 0 -171 119
l7 6q66 -102 164 -103q80 0 150.5 21.5t133.5 63.5q129 86 132 214q0 120 -162 122q-26 0 -105 -27q-78 -26 -77 -26q-17 0 -18 16q0 25 239 306q165 21 252.5 31t101.5 12z" />
    <glyph glyph-name="six" unicode="6" horiz-adv-x="705" 
d="M813 619q0 -27 -16 -68q-16 -42 -27 -44q-13 0 -14 15q0 6 1 17t5 28q6 31 6 55q0 32 -30 53q-16 10 -34.5 15t-43.5 6q-105 0 -237 -90q-125 -85 -207 -212q-88 -131 -89 -242q0 -76 41 -130q41 -51 101 -53q96 0 191 74q103 81 103 187q0 75 -40 119q-37 41 -111 41
q-58 0 -184 -52v11q59 32 106 47.5t84 17.5q86 0 138 -41q48 -39 48 -113q0 -116 -123 -216q-57 -47 -113.5 -69.5t-113.5 -24.5q-72 0 -123 57q-49 55 -51 141q0 59 27 122.5t81 136.5q97 130 243 225q148 98 259 98q55 0 89 -31q31 -27 34 -80z" />
    <glyph glyph-name="seven" unicode="7" horiz-adv-x="488" 
d="M684 663q0 -5 -5.5 -11.5t-19.5 -17.5q-40 -27 -56 -40l-71.5 -65l-61.5 -57l-109.5 -105t-88.5 -92q-188 -209 -188 -256q0 -6 0.5 -12t3.5 -12q2 -5 2.5 -7.5t1.5 -4.5q0 -4 -17 -15q-14 -10 -24 -10q-16 0 -19 38q0 50 106 159l88 97.5l87 98.5q78 82 162 158.5
t175 149.5q-11 2 -26 3t-35 2q-20 0 -53.5 -3t-83.5 -8q-48 -5 -80.5 -9.5t-50.5 -9.5q-29 -6 -62 -24q-28 -12 -37 -15q-26 0 -26 28q0 26 38 36l42.5 8t44.5 9q18 3 53.5 7l89.5 10q114 9 173 9q45 0 47 -39z" />
    <glyph glyph-name="eight" unicode="8" horiz-adv-x="687" 
d="M797 611q-48 -94 -203 -158l-179 -76q100 -58 149 -112t51 -105q0 -79 -100 -142q-49 -31 -105 -46t-119 -17q-51 0 -95 12.5t-81 38.5t-54.5 57t-19.5 68q0 148 324 253q-52 69 -52 119q0 76 79 134q76 57 182 60q63 0 103 -26q39 -26 39 -67q0 -44 -11 -68q33 23 44 34
q18 15 34 49l14 -8v0zM678 581q0 43 -34 71q-32 24 -92 26q-89 0 -156 -51q-34 -26 -50 -55.5t-18 -64.5q0 -52 59 -114l55 18t102 36q132 48 134 134zM574 149q0 28 -17.5 56t-51.5 60l-66 53l-68 55q-134 -59 -190 -101q-88 -64 -88 -149q0 -69 52 -112q51 -41 146 -41
q116 0 199 52q42 26 62 57.5t22 69.5z" />
    <glyph glyph-name="nine" unicode="9" horiz-adv-x="693" 
d="M730 503q0 -118 -94 -251q-86 -121 -216 -205q-134 -84 -245 -84q-26 0 -49.5 5.5t-46.5 18.5q-43 21 -107 84l13 7q54 -57 94 -80q21 -10 44.5 -14.5t51.5 -6.5q124 0 250 89q113 80 188 201q75 123 76 221q0 36 -13 66.5t-39 56.5q-49 52 -123 52q-103 0 -188 -71
q-81 -69 -81 -163q0 -87 57 -143q60 -55 148 -55q89 0 90 -4q0 -10 -1 -11q-72 -18 -138 -18q-77 0 -138 58q-58 58 -59 135q0 117 102 207q100 91 229 91q86 0 141 -52q52 -48 54 -134z" />
    <glyph glyph-name="colon" unicode=":" horiz-adv-x="255" 
d="M159 139q0 -34 -45 -35q-43 0 -43 35q0 36 43 36q19 0 31 -11q13 -10 14 -25zM113 23q0 -33 -46 -36q-43 0 -43 36q0 35 44 35q16 0 31 -11q13 -9 14 -24z" />
    <glyph glyph-name="semicolon" unicode=";" horiz-adv-x="246" 
d="M149 140q0 -33 -47 -34q-42 0 -43 34q0 36 44 36q15 0 31 -11q12 -11 15 -25zM90 48q0 -22 -10 -35q0 -2 -11 -14t-32 -37q-45 -41 -63 -42q-5 0 -8 15q0 7 14 18q15 9 28 26q8 11 16 28.5t13 42.5q3 14 27 17q26 0 26 -19z" />
    <glyph glyph-name="semicolon" unicode="&#x37e;" horiz-adv-x="246" 
d="M149 140q0 -33 -47 -34q-42 0 -43 34q0 36 44 36q15 0 31 -11q12 -11 15 -25zM90 48q0 -22 -10 -35q0 -2 -11 -14t-32 -37q-45 -41 -63 -42q-5 0 -8 15q0 7 14 18q15 9 28 26q8 11 16 28.5t13 42.5q3 14 27 17q26 0 26 -19z" />
    <glyph glyph-name="less" unicode="&#x3c;" horiz-adv-x="414" 
d="M422 468q5 -19 -37 -44l-34.5 -27.5l-36.5 -27.5q-47 -31 -93.5 -55.5t-95.5 -44.5q41 -21 94.5 -35t121.5 -19q74 -6 76 -24q0 -12 -38 -12q-104 0 -165 18q-23 8 -46.5 14t-49.5 14q-47 21 -46 55q0 15 9 20q5 3 14 5t25 6q20 3 87 37q44 21 80.5 43t65.5 45
q12 10 26 20l29 21q10 2 14 -9z" />
    <glyph glyph-name="equal" unicode="=" horiz-adv-x="502" 
d="M492 364q0 -9 -15 -21q-7 -5 -13.5 -7.5t-14.5 -4.5q-62 0 -133 -1t-154 -4q-12 -1 -24 -1.5t-25 -1.5q-20 0 -21 7q0 20 25 26q3 0 17.5 1t40.5 5q59 0 125 1t141 4q8 1 16.5 1.5t17.5 2.5q16 0 17 -7zM492 244q0 -11 -15 -22q-14 -9 -28 -12q-62 0 -133 -1t-154 -4
l-24 -2l-25 -2q-19 0 -21 8q0 19 25 26q3 0 17.5 1t40.5 5q59 0 125 1.5t141 3.5q8 1 16.5 1.5t17.5 2.5q15 0 17 -6z" />
    <glyph glyph-name="greater" unicode="&#x3e;" horiz-adv-x="415" 
d="M427 254q-2 -13 -12 -18q-4 -2 -13.5 -2.5t-24.5 -0.5q-79 -3 -214 -60q-30 -13 -46.5 -18.5t-19.5 -5.5q-9 0 -9 12q3 15 48 31q17 9 34.5 16.5l36.5 15.5q86 36 171 52q-69 50 -223 93q-35 10 -50 18.5t-14 18.5q0 10 37 6q93 -9 176 -51l86 -43q43 -30 37 -64z" />
    <glyph glyph-name="question" unicode="?" horiz-adv-x="628" 
d="M846 594q0 -61 -57 -119q-50 -45 -100 -61l-144 -37.5l-183 -50.5q-40 -11 -74.5 -25.5t-65.5 -33.5q-61 -40 -76 -79q-5 -13 -5 -34q1 -35 3 -35q0 -9 -10 -15q-10 -5 -21 -4q-18 3 -18 24q0 34 16.5 64t51.5 58q29 21 72.5 42.5t103.5 42.5q17 7 66 20.5l130 35.5
q112 30 166 63q36 22 63 67q24 42 26 83q0 57 -51 95q-50 36 -135 36q-58 0 -113 -14t-108 -44q-22 -11 -45 -27t-49 -37q-17 -13 -32.5 -27l-32.5 -28l-9 1l62 54l62 52q114 92 299 93q95 0 151 -39q54 -41 57 -121zM127 5q0 -13 -22 -26q-8 -5 -14 -6.5t-12 -2.5
q-40 0 -41 27q0 14 18 25q10 6 19 8.5t20 3.5q32 0 32 -29z" />
    <glyph glyph-name="at" unicode="@" horiz-adv-x="859" 
d="M836 484q0 -128 -85 -253q-43 -62 -84.5 -92.5t-85.5 -30.5q-23 0 -41 21q-16 22 -16 47q0 23 7 53.5t23 67.5l-5 3l-54 -62t-39 -39q-61 -52 -134 -54q-41 0 -71 20q-29 20 -29 51q0 94 93 203q100 116 217 140q13 2 22.5 2t17.5 2q32 0 39 -25q3 -17 3 -29
q0 -34 -33 -34q-1 0 -12 15q-4 8 -9 14t-10 11q-15 12 -40 9q-40 -7 -79.5 -36t-81.5 -83q-77 -100 -77 -170q0 -7 3.5 -13t13.5 -14q15 -12 30 -12q78 0 204 120q32 32 79 101q34 54 48 58q3 0 6.5 -0.5t10.5 -2.5q8 -3 11 -11q0 -5 -30 -47q-19 -26 -31 -45.5t-20 -34.5
q-17 -42 -26.5 -78t-10.5 -65q0 -48 36 -48q54 0 132 114q78 117 80 218q0 49 -15.5 84.5t-45.5 61.5q-32 25 -74.5 36.5t-97.5 13.5q-105 0 -214 -85q-97 -73 -167 -189q-67 -109 -67 -198q0 -211 309 -214q85 0 161 34.5t145 102.5q9 11 24 12q6 0 3 -8q-69 -77 -160 -122
q-89 -42 -186 -43q-145 0 -230 49q-98 59 -99 178q0 106 74 227q75 118 184 198q116 83 229 85q120 0 187 -57q68 -56 68 -157z" />
    <glyph glyph-name="A" unicode="A" horiz-adv-x="1040" 
d="M918 448q0 -35 -3.5 -83.5t-10.5 -111.5q-13 -123 -30 -194q5 2 8 4t8 6q6 6 12 6q11 0 11 -8q0 -6 -43 -39l-6 -54q-1 -8 -5 -13.5t-11 -11.5q-11 -8 -25 -11q-7 0 -7 17q0 11 0.5 25t3.5 31q-107 -46 -188 -46q-53 0 -191 54t-174 54q-81 0 -161 -29
q-32 -12 -65.5 -29.5t-73.5 -42.5l-62 -40.5l-65 -41.5q-9 -5 -30 -7q-13 0 -13 12l37 17q32 17 79 48.5t110 80.5q36 27 94 81l140 135l141 143.5l114 122.5q123 140 247 140q91 0 131 -78q14 -26 20.5 -60t7.5 -77zM866 427q0 201 -129 201q-77 0 -169 -80
q-16 -13 -176 -176l-128 -131l-46 -47q-46 -45 -93 -86.5t-95 -79.5l80.5 34t46.5 18q52 15 122 15q37 0 93.5 -12t133.5 -39l118.5 -36t49.5 -14q37 0 85 17q17 6 33 12.5t33 14.5q7 53 13 105.5t13 106.5q15 126 15 177z" />
    <glyph glyph-name="B" unicode="B" horiz-adv-x="877" 
d="M918 691q0 -64 -58.5 -137t-175.5 -158q136 -73 136 -137q0 -110 -228 -216q-210 -95 -383 -97q-140 0 -169 7l-117 -133q-16 -19 -31 -19q-7 0 -7 10l124 145q-81 19 -81 37q0 24 33 25q7 0 16.5 -1.5t22.5 -6.5q11 -4 21.5 -5.5t21.5 -3.5l174 232q-172 18 -172 79
q0 56 119 95q27 10 56.5 17t61.5 13l48 8l48 8q137 180 251 253q91 57 202 59q35 0 60 -21q27 -20 27 -53zM873 662q0 26 -28 48q-26 18 -70 18q-107 0 -225 -111q-20 -20 -54 -60.5l-83 -103.5q32 0 70.5 -5t84.5 -16q25 -8 49 -14t49 -13q50 42 85.5 74.5t58.5 57.5
q61 70 63 125zM608 375q-75 21 -130 31t-91 12l-103 -142q93 6 203 45q43 14 73.5 27t47.5 27zM780 241q0 41 -63 83q-57 40 -86 40q-163 -91 -377 -130l-182 -241q64 -3 159 -3q185 0 364 76q185 78 185 175zM352 416q-21 2 -68 -5.5t-120 -24.5q-84 -20 -84 -52
q0 -23 71 -44q54 -16 97 -16l104 142v0z" />
    <glyph glyph-name="C" unicode="C" horiz-adv-x="795" 
d="M907 732q0 -112 -135 -220q-128 -104 -242 -104q-13 0 -30 7q-21 9 -22 24q0 17 16 33q8 8 16 11t16 4q5 -16 8.5 -26t5.5 -15q7 -6 23 -7q35 0 70 11t72 36q38 24 64.5 43.5t40.5 36.5q24 27 35.5 60t12.5 73q0 123 -153 123q-133 0 -284 -85q-75 -43 -137 -96.5
t-112 -119.5q-107 -146 -108 -295q0 -113 71 -179q71 -61 197 -64q35 0 75.5 8.5t88.5 27.5q23 8 49 19.5l57 25.5q43 24 50 26q6 0 6 -8q0 -18 -92 -63q-81 -38 -149.5 -56.5t-125.5 -20.5q-120 0 -197 68q-74 68 -74 182q0 157 119 318q56 75 125.5 137t155.5 112
q166 101 318 101q73 0 121 -36q46 -34 48 -92z" />
    <glyph glyph-name="D" unicode="D" horiz-adv-x="952" 
d="M972 424q0 -120 -103 -236q-49 -54 -112.5 -98t-142.5 -79q-157 -68 -317 -68q-56 0 -117.5 9.5t-130.5 28.5q-134 40 -135 71q0 26 29 26q4 -1 8 -4q4 -2 9.5 -5t13.5 -7q18 -9 39 -17.5t45 -16.5q34 -10 71.5 -18t82.5 -15q51 31 89 57t65 48q35 29 68 62.5t65 74.5
q29 38 89 124l153 222q11 0 14 -18q-21 -41 -78.5 -124.5l-152.5 -211.5q-36 -51 -109 -116q-84 -76 -171 -123q24 -1 54 -1.5t69 -2.5q197 0 380 124q187 126 187 284q0 81 -68 167q-17 20 -56 59l-103 99l-62 54l-62 54q-23 25 -34.5 50t-12.5 54q0 83 11 86h15
q-3 -15 -3 -29q0 -34 17 -67.5t52 -71.5l70.5 -61l70.5 -61l94.5 -88t43.5 -42q63 -78 65 -173z" />
    <glyph glyph-name="E" unicode="E" horiz-adv-x="846" 
d="M911 711q0 -62 -87 -120q-84 -58 -177 -60q-75 0 -75 49q0 31 35 37q29 3 29 -11v-5t-2 -9q-1 -5 -1 -9.5v-6.5q3 -18 43 -19q72 0 133 43q61 45 61 91q0 37 -42 62q-41 23 -107 24q-63 0 -126.5 -18.5t-130.5 -57.5q-129 -78 -130 -151q0 -34 34 -80q17 -21 25 -35.5
t10 -22.5q0 -31 -90 -76l-111 -56.5t-55 -31.5q-64 -45 -87 -65q-37 -40 -39 -99q0 -62 47 -103q49 -39 124 -39q60 0 116 9.5t110 27.5q109 39 242 127q1 0 9 -15q-138 -99 -255 -143q-60 -21 -122 -31t-130 -12q-88 0 -140 41q-50 39 -51 109q0 76 59 135q16 16 48.5 38
t83.5 50l64.5 34.5l65.5 34.5q61 35 61 49q0 13 -34 62q-35 45 -35 75q0 86 162 181q81 46 159.5 68.5t156.5 24.5q63 0 106 -28t43 -68z" />
    <glyph glyph-name="F" unicode="F" horiz-adv-x="896" 
d="M1209 665q-24 -14 -45.5 -21.5t-38.5 -9.5q-13 0 -25.5 1.5t-24.5 3.5l-481 123q-36 10 -65.5 13.5t-53.5 5.5q-54 0 -110 -17.5t-114 -51.5q-130 -77 -131 -173q0 -59 72 -108q70 -49 160 -49q62 0 164 49q10 1 15 -11q-144 -67 -240 -67q-93 0 -151 45q-56 47 -56 122
q0 109 135 198q135 86 304 89q111 0 323 -54q142 -38 232 -59t131 -29zM900 631q-22 -27 -77.5 -103l-145.5 -205q63 7 105 10t63 5q8 0 8 -10q-10 -25 -47 -31l-164 -19l-77 -102.5l-76 -93.5q-129 -156 -171 -156q-23 0 -27 24q0 16 11 18q17 0 19 1q46 16 115 86
q35 35 79.5 89t101.5 130q-25 0 -86 -9q-44 -7 -74.5 -10.5t-49.5 -6.5q-3 4 -4 8t-2 9q0 30 45 32q20 0 70.5 5.5t135.5 18.5l101 141.5l135 180.5l12 -12v0z" />
    <glyph glyph-name="G" unicode="G" horiz-adv-x="972" 
d="M958 341q0 -6 -23 -27q-31 -25 -48 -47q-8 -11 -21 -35t-30 -62q-20 -44 -38 -78l-33 -60q20 11 40 16.5t39 6.5q11 0 11 -9q0 -2 -27 -9q-19 -3 -37 -9.5t-36 -18.5l-114.5 -154t-74.5 -91q-133 -148 -228 -151q-13 0 -32 11q-21 14 -24 42q0 65 136 167q114 84 293 175
q19 32 44.5 79.5l57.5 110.5q-280 -213 -572 -216q-52 0 -93.5 16t-75.5 48q-63 60 -66 160q0 130 121 266q57 65 128 117.5t159 95.5q175 88 333 88q82 0 136 -38q53 -36 54 -97q0 -101 -134 -202q-133 -102 -268 -103q-58 0 -58 49q0 6 2 12.5t8 12.5q7 7 12.5 10.5
t13.5 3.5q23 0 25 -7q0 -10 -3 -14q-1 -3 -1 -5t-1 -5q0 -21 47 -23q98 0 203 80q55 42 82.5 84t27.5 89q0 53 -49 85q-49 30 -133 31q-155 0 -308 -77q-149 -74 -247 -191q-50 -61 -75.5 -121.5t-25.5 -121.5q0 -87 71 -153q72 -62 181 -63q117 0 278 76q142 64 211 132
l44 45l44 45q40 38 65 43q6 0 9 -9zM703 -16q-80 -39 -144.5 -77.5t-116.5 -79.5q-114 -88 -115 -145q0 -12 14 -21q7 -5 15 -7.5t19 -2.5q71 0 195 148q81 98 133 185z" />
    <glyph glyph-name="H" unicode="H" horiz-adv-x="1406" 
d="M1599 896q-15 -22 -79 -95q-69 -78 -107 -132q-73 -98 -139 -195.5l-129 -199.5q21 -9 249 -36v-16l-288 -4l-60 -93v-22q0 -10 -7 -18q-6 -8 -13 -8q-6 0 -8 2t-4 7q0 10 7.5 28.5t21.5 49.5q28 56 30 58l-141 34q-155 -159 -314.5 -237t-327.5 -79q-117 0 -197 62
q-82 65 -82 154q0 56 30.5 103.5t90.5 89.5q119 81 286 82q83 0 301 -56l164.5 -41.5t61.5 -14.5l67.5 91.5l94.5 135.5l86 125t58 76q10 13 20.5 24.5l22.5 25.5q13 17 13 33q0 7 -6 18q-5 12 -5 20q0 11 50 35q23 11 36.5 15.5t20.5 5.5q10 0 10 -23q0 -9 -48 -60l-56 -61
t-36 -42q-31 -39 -73.5 -99.5l-97.5 -144.5l-85.5 -128t-37.5 -54l136 -31l41.5 70t42.5 69q101 160 182 273q81 114 131.5 169.5t71.5 57.5q12 0 15 -24zM901 267q-38 8 -296 78q-71 18 -129.5 27.5t-106.5 9.5q-69 0 -127.5 -14.5t-106.5 -45.5q-94 -58 -94 -152
q0 -82 78 -134q41 -26 89.5 -39t108.5 -13q193 0 366 97q143 78 218 186z" />
    <glyph glyph-name="I" unicode="I" horiz-adv-x="886" 
d="M1069 741q0 -110 -91 -270q-137 -240 -333 -375q-190 -134 -404 -136q-54 0 -97.5 14t-79.5 44q-68 56 -68 145q0 113 111 197q105 78 232 78q157 0 274 -43q121 -42 121 -98q0 -21 -6 -22l-14 7l-16.5 9l-23.5 13q-31 17 -62.5 31t-63.5 25q-93 29 -191 29
q-68 0 -124.5 -13t-107.5 -41q-95 -54 -95 -131q0 -88 75 -145q38 -29 85 -42.5t107 -15.5q178 0 355 124q88 62 162 146.5t136 196.5q81 142 81 273q0 43 -37 70q-38 26 -100 26q-25 0 -43 -1t-29 -3q32 23 62 33t57 12q61 0 100 -46q28 -40 28 -91z" />
    <glyph glyph-name="J" unicode="J" horiz-adv-x="931" 
d="M903 735q0 -89 -87 -248q-51 -91 -123.5 -191t-170.5 -212l72 -28t72 -30q92 -42 92 -72q0 -14 -26 -14q-9 4 -21 10l-26 12t-35 18q-91 46 -162 64q-115 -114 -202.5 -192t-147.5 -124q-174 -122 -323 -125q-57 0 -95 35q-20 16 -28.5 37.5t-9.5 48.5q0 78 85 169
q42 45 96 81.5t122 66.5q150 65 307 65q48 0 97 -5t101 -13q57 55 115 128t119 166q142 217 142 332t-134 115q-17 0 -37.5 -1.5t-47.5 -5.5q19 15 34 24.5t29 15.5q27 9 67 9q126 0 126 -136zM454 48q-95 19 -162 19q-112 0 -212 -23.5t-189 -72.5q-175 -97 -176 -218
q0 -42 39 -76q38 -32 91 -32q114 0 280 107q85 55 167 128.5t162 167.5z" />
    <glyph glyph-name="K" unicode="K" horiz-adv-x="1469" 
d="M768 248q77 -50 206 -120l313 -163l-69 -23l-107 54l-97 51q-112 57 -188.5 101t-121.5 76q-60 -32 -128.5 -56.5t-146.5 -40.5l-103 -116.5t-71 -73.5q-68 -66 -187 -155q-3 4 -3 13q0 6 36 35l56 44.5t53 46.5q45 41 90.5 90.5l95.5 108.5q-54 -8 -93 -11.5t-65 -3.5
q-54 0 -94.5 11t-69.5 36q-46 38 -47 100q0 68 81 116q82 47 201 47q26 0 54 -3.5t58 -11.5q40 -9 150 -45l272 333l11 -23l-107 -134l-150 -188l53.5 -29.5l82.5 -46.5q67 35 143.5 84t165.5 114q78 57 145 111.5t126 108.5l29 28.5l55 56.5q36 34 50 37q9 0 23 -8
q10 -7 11 -14q0 -44 -218 -216q-237 -183 -495 -321zM565 303l-47 -60.5l-58 -72.5q62 9 217 69zM541 310q-159 72 -291 72q-77 0 -135 -35q-55 -34 -55 -84q0 -47 55 -82q55 -33 139 -33q13 0 55 3t116 10l116 149v0z" />
    <glyph glyph-name="L" unicode="L" horiz-adv-x="1341" 
d="M1630 -132q-52 -32 -84 -41q-10 -2 -31.5 -2.5t-53.5 -1.5q-38 0 -79 5.5t-86 18.5q-17 1 -174 54l-204 64q-147 -133 -278 -198q-182 -91 -397 -91q-127 0 -203 47q-81 52 -84 151q0 124 135 205q118 71 245 71q160 0 367 -60l108 -34l110 -36q22 21 48 52t58 73
l107 144t45 60q63 81 144 168q98 104 124 105q6 0 3 -20q-1 -12 -5 -28.5l-10 -39.5q-11 5 -19.5 7l-16.5 4q-24 0 -92 -77q-56 -59 -110 -132q-13 -17 -45 -63l-86 -123q-35 -51 -61.5 -85t-46.5 -53l196 -65q135 -45 231 -66.5t156 -23.5q31 0 46 5q6 2 17 6.5t26 14.5
q4 -4 8 -7q0 -1 -8 -8zM881 -22l-155 47l-93 28q-205 55 -319 55q-132 0 -220 -51q-107 -60 -107 -183q0 -64 81 -115q87 -51 227 -51q169 0 326 80q119 61 260 190z" />
    <glyph glyph-name="M" unicode="M" horiz-adv-x="1399" 
d="M1392 659q0 -20 -77 -257q-78 -233 -78 -312v-12t2 -15v-13.5t2 -14.5q0 -5 -12 -11q-6 -2 -10.5 -2h-8.5q-13 2 -19.5 16.5t-6.5 46.5q0 41 9.5 90.5t30.5 110.5l35.5 97l38.5 100q39 105 40 157q0 37 -54 38q-68 0 -191 -114l-168.5 -163l-169.5 -165
q-5 -5 -33.5 -37.5l-79.5 -94.5q-90 -106 -103 -109q-8 0 -10 2v8q0 9 1 12q0 13 113 154l97.5 123.5t42.5 57.5q102 161 103 206q0 14 -11 28q-10 13 -23 13q-71 0 -252 -153q-82 -71 -155 -144t-137 -151q-137 -164 -157 -167q-1 0 -4 8q0 15 42 68l42.5 51l43.5 51
q53 66 98 129t84 128q47 78 69 134.5t24 94.5q0 49 -41 84q-38 32 -97 35q-90 0 -177 -51q-59 -37 -122 -100l-34.5 -38l-35.5 -38l-11 7l44.5 52l44.5 52q68 73 132 109q86 52 185 52q70 0 118 -37q46 -34 46 -97q0 -68 -18 -116q-11 -31 -36 -76t-65 -106
q88 80 154.5 133.5t113.5 82.5q69 42 128 44q14 0 26 -4t21 -13q10 -8 14 -19.5t5 -26.5q0 -52 -120 -239l200 192t114 105q60 48 108.5 70.5t89.5 24.5q53 0 55 -71z" />
    <glyph glyph-name="N" unicode="N" horiz-adv-x="1094" 
d="M1064 652q0 -49 -90 -380q-17 -60 -29.5 -122t-22.5 -128q-26 4 -33 21q-2 6 -4 31q0 53 19 120l14.5 54.5l15.5 55.5l16.5 70t31.5 123q20 81 21 120q0 28 -15 46q-14 21 -36 22q-18 0 -51 -19.5t-81 -60.5q-48 -39 -92.5 -85.5t-89.5 -100.5l-74 -89l-74 -89
q-33 -38 -61.5 -74.5l-54.5 -72.5q-27 -40 -44 -63l-24 -33q-11 -14 -21 -20.5t-18 -7.5q-9 0 -9 8q0 17 79 130q151 212 214 331q57 114 57 190q0 31 -8 55t-27 44q-32 33 -79 33q-36 0 -79 -13.5t-96 -39.5q-89 -44 -143 -97l-23 -24l-40 -43q-14 -16 -23 -23t-13 -9
q-5 0 -6 9q0 11 91 101q80 80 183 131q50 26 95 38t87 13q60 0 99 -39q20 -18 28 -42.5t10 -56.5q0 -28 -5 -56.5t-16 -58.5q-10 -30 -29.5 -71.5t-50.5 -96.5l99.5 101.5l99.5 103.5q141 136 233 138q30 0 49 -20q20 -20 20 -54z" />
    <glyph glyph-name="O" unicode="O" horiz-adv-x="911" 
d="M1016 588q0 -67 -29 -137t-89 -145q-55 -70 -125.5 -128.5t-155.5 -106.5q-89 -49 -173.5 -73t-165.5 -26q-106 0 -175 69q-69 66 -70 170q0 78 23.5 150t72.5 141q41 57 93 105t119 86q59 35 112 52.5t102 20.5v-13q-49 5 -156 -54q-65 -35 -117.5 -76.5t-94.5 -93.5
q-54 -63 -79.5 -131t-26.5 -141q0 -109 67 -173q35 -32 79 -48.5t101 -18.5q138 0 290 85q75 41 135 91.5t109 113.5q99 129 101 258q0 81 -65 139t-158 58q-44 0 -96 -17.5t-113 -54.5q-127 -74 -207 -182q-6 -6 -20 -3q147 189 283 250q34 15 55 23.5t31 11.5q42 14 94 14
q120 0 185 -55q64 -55 64 -161z" />
    <glyph glyph-name="P" unicode="P" horiz-adv-x="829" 
d="M1283 945q0 -94 -159 -224q-110 -92 -292 -157q-176 -65 -324 -65h-72t-50 2l-91 -131l-115 -155q-36 -47 -77 -90.5t-90 -87.5q-89 -78 -114 -78q-20 0 -22 26q0 8 10 25q8 13 21 15q9 0 15 -5q3 -3 13 -5q32 0 216 223q88 107 138 173t65 95q-111 19 -184 49
q-19 8 -21 28q0 16 30 16q18 0 84 -20q78 -21 116 -29q64 92 135.5 171t152.5 149q232 201 432 201q86 0 133 -34q25 -17 36.5 -39.5t13.5 -52.5zM1233 912q3 48 -45 82q-47 31 -121 34q-300 0 -657 -486h121q127 0 292 54q169 54 281 134q124 90 129 182z" />
    <glyph glyph-name="Q" unicode="Q" horiz-adv-x="1248" 
d="M1554 -120q0 -8 -60 -35q-32 -14 -60 -20t-51 -7q-148 0 -541 160q-77 -66 -167.5 -115t-199.5 -85q-155 -49 -247 -50q-105 0 -190 65q-42 32 -61.5 68.5t-21.5 78.5q0 97 109 175q100 75 220 75q45 0 87 -4.5t83 -15.5q60 -15 160 -49.5t243 -90.5q67 56 113.5 103
t72.5 89q50 79 53 178q0 70 -45 112q-46 43 -117 44q-155 0 -274 -113q-7 -6 -54 -59q-7 -6 -17 3l21.5 29t34.5 42q69 72 149.5 106.5t174.5 35.5q79 0 130 -49q49 -47 49 -130q0 -81 -43 -155q-33 -59 -102 -129l-60 -59l-60 -59q60 -25 134 -51.5t165 -55.5
q94 -29 151.5 -42.5t82.5 -15.5q36 0 74 16q19 8 31.5 11t19.5 4q13 0 13 -5zM818 -12q-29 8 -75 25l-111 43l-109 39.5l-81 27.5q-54 14 -102.5 21t-93.5 9q-101 0 -173 -54q-70 -50 -72 -129q0 -90 78 -150q76 -58 201 -58q73 0 154 22t172 69q138 68 212 135z" />
    <glyph glyph-name="R" unicode="R" horiz-adv-x="1161" 
d="M1242 602q0 -120 -172 -259q-119 -95 -347 -215l136 -81l210 -127q30 -21 120 -56q0 -13 -2 -14q-1 0 -24 -2q-91 0 -514 251q-20 -11 -54.5 -25t-86.5 -32q-60 -20 -109 -31.5t-91 -16.5q-42 -56 -88 -111l-100 -115q-158 -175 -217 -177q-16 0 -16 27q0 10 12 21
q13 10 21 11q7 0 16 -4q4 -2 7 -2h5q162 124 328 347q-96 0 -182 62q-82 59 -83 135q0 74 63 128q32 27 70 40t83 14q119 0 265 -88q326 440 589 443q35 0 62.5 -9.5t52.5 -26.5q45 -35 46 -87zM1189 580q0 41 -47 69q-47 27 -101 27q-132 0 -271 -120q-78 -68 -257 -287
q18 -18 195 -127q98 51 177 101t142 102q162 132 162 235zM479 217l-139 -183q113 5 291 80zM454 233q-39 33 -96 62q-79 41 -145 41q-74 0 -127 -38q-52 -37 -52 -91q0 -74 100 -128q45 -24 88.5 -34.5t87.5 -10.5l144 199v0z" />
    <glyph glyph-name="S" unicode="S" horiz-adv-x="900" 
d="M947 662q0 -75 -72 -135q-73 -59 -156 -59q-30 0 -53 11q-19 12 -21 30q0 45 29 45q17 0 18 -13q0 -5 -5 -10q-2 -2 -2.5 -4.5t-1.5 -6.5q0 -13 15 -23q16 -10 40 -10q56 0 108 49q53 51 53 103q0 47 -48 80q-44 32 -116 32q-114 0 -250 -71q-146 -75 -146 -160
q0 -61 77 -92l270 -102q100 -37 100 -111q0 -114 -116 -185q-59 -34 -135 -51.5t-173 -18.5q-158 0 -272 54q-111 56 -111 134q0 63 84 90q37 10 40 -1q-3 -2 -8 -6q-5 -3 -11.5 -8l-14.5 -11q-33 -21 -34 -57q0 -81 95 -128q91 -45 255 -47q78 0 142.5 14t117.5 44
q104 57 104 143q0 67 -92 103l-267 107q-79 30 -80 107q0 105 141 192q142 88 309 88q89 0 138 -32q47 -31 49 -84z" />
    <glyph glyph-name="T" unicode="T" horiz-adv-x="985" 
d="M1257 663q-5 -5 -24 -15q-20 -7 -36 -8q-185 0 -248 38l-268.5 -358t-181.5 -225q-34 -38 -68 -72t-69 -65q-73 -61 -101 -63q-19 0 -20 26q0 12 9 26q12 14 24 15q2 0 11 -4q6 -3 18 -4q7 0 66 51q31 28 57.5 55.5t50.5 55.5q98 114 207 255l234 312q-322 124 -399 125
q-378 0 -380 -209q0 -71 65 -121q64 -48 154 -49q21 0 55 7.5t83 21.5q11 4 17 2q4 -1 1 -10q-110 -52 -185 -52q-92 0 -162 56q-35 27 -51.5 59.5t-18.5 70.5q0 117 126 192q124 75 324 75q91 0 412 -114q35 39 61.5 57.5t44.5 19.5q4 0 4 -8q0 -2 -30 -25
q-17 -13 -28.5 -25.5t-21.5 -25.5q17 -8 56.5 -16.5l103.5 -21.5q108 -20 108 -29z" />
    <glyph glyph-name="U" unicode="U" 
d="M1389 676q0 -5 -212 -307q-107 -149 -159.5 -232.5t-54.5 -103.5q0 -23 16 -23q2 0 4 0.5t6 2.5q9 0 12 2q-29 -38 -56 -38q-10 0 -19 8q-10 7 -10 17q0 39 96 187l82 129t31 49l-123.5 -119l-124.5 -119q-158 -144 -240 -145q-16 0 -29 6.5t-23 22.5q-18 25 -21 63
q0 20 16 78t50 158q33 98 49 167.5t16 112.5q0 111 -67 168q-66 57 -197 59q-32 0 -64 -7t-65 -24q-21 -10 -44 -24.5t-47 -34.5q-20 -15 -30.5 -22t-12.5 -9q-10 0 -13.5 2t-5.5 6q0 6 82 65q128 87 248 89q124 0 198 -68q75 -66 75 -178q0 -29 -16.5 -99t-51.5 -180
q-32 -109 -48 -170.5t-18 -75.5q0 -24 16 -44q16 -19 36 -19q65 0 325 246q114 109 182.5 180.5t93.5 107.5q61 88 74 104q23 29 34 29q9 0 10 -1v-16v0z" />
    <glyph glyph-name="V" unicode="V" horiz-adv-x="1138" 
d="M1329 806q0 -41 -52 -170q-37 -90 -85.5 -170.5t-108.5 -155.5q-56 -68 -111.5 -124.5t-113.5 -104.5q-127 -104 -202 -104q-33 0 -62 29q-22 28 -24 71q0 20 15.5 73.5t45.5 144.5q62 176 62 236q0 100 -70 164q-70 65 -176 65q-174 0 -295 -150q-2 -2 -9 -2q-6 4 -6 13
q0 49 112 115q121 73 254 74q103 0 173 -76q68 -76 68 -192q0 -39 -15 -103t-44 -155q-56 -179 -56 -196q0 -28 18 -52q18 -22 42 -23q56 0 175 108q101 89 201 216q86 107 158 271q32 74 47.5 122.5t16.5 74.5v22q-29 0 -29 -44v-13t-1 -24v-38q0 -3 -12 -9q-13 -3 -13 0
q-6 24 -8.5 44.5t-2.5 39.5q0 47 34 71q22 16 38 16q36 0 36 -64z" />
    <glyph glyph-name="W" unicode="W" horiz-adv-x="1500" 
d="M1645 715q0 -81 -29 -165t-89 -174q-54 -83 -121.5 -151.5t-148.5 -125.5q-85 -57 -161.5 -85t-147.5 -30q-68 0 -116 48q-23 25 -35 54.5t-16 64.5q-2 38 21.5 103.5t74.5 162.5l-82 -66.5l-78 -65.5l-169.5 -142.5t-135.5 -124.5q-12 0 -15 11q330 294 332 522
q0 89 -64 147q-31 29 -72.5 42.5t-94.5 15.5q-94 0 -185 -41q-114 -49 -197 -145l-13 2q89 112 196 166.5t232 54.5q111 0 179 -61q64 -61 67 -160q0 -61 -24 -125q-11 -29 -33.5 -69.5t-54.5 -92.5l121.5 97l173.5 144l65.5 57t28.5 25q30 25 48 26q3 0 5 -8q0 -7 -19 -19
l-23 -21.5t-16 -14.5q-41 -42 -75 -88.5t-66 -100.5q-68 -124 -68 -214q0 -30 8.5 -55.5t28.5 -47.5q37 -43 101 -43q59 0 125.5 24t142.5 75q149 98 251 244q56 81 83 158.5t28 154.5q0 43 -16 72t-39 31q-14 0 -26.5 -3t-26.5 -11l-5 6q32 51 76 54q29 0 53 -32
q10 -17 14.5 -36.5t6.5 -43.5z" />
    <glyph glyph-name="X" unicode="X" horiz-adv-x="1028" 
d="M1074 768q-40 -24 -70 -47t-51 -44l-39.5 -42l-40.5 -42l-180 -181q12 -45 23 -90.5l22 -93.5q14 -50 29 -94.5t34 -83.5q6 -14 30 -25q22 -10 49 -7v-4q-13 -8 -25 -11t-23 -5q-45 0 -76 40q-13 16 -23.5 42t-21.5 64l-59 224l-69.5 -69.5l-94.5 -93.5l-135 -131.5
t-66 -61.5q-123 -111 -179 -111q-18 0 -21 15q0 11 9 19q8 11 17 11q1 0 13 -5q5 -2 10.5 -2h12.5q77 27 332 291q29 26 69 67.5l93 99.5q-33 144 -82 218q-35 54 -81.5 79.5t-106.5 26.5q-116 0 -248 -113l-6 5q85 82 149 114q31 17 67.5 24.5t78.5 7.5q192 0 273 -322
l168 171l46.5 46.5l46.5 48.5q47 42 117 76l9 -11v0z" />
    <glyph glyph-name="Y" unicode="Y" horiz-adv-x="1279" 
d="M1450 572q0 -8 -18 -26l-11.5 -10t-11.5 -12q-198 -238 -362.5 -456t-301.5 -420q-88 -134 -89 -164q0 -9 12 -17q12 -9 12 -13q0 -24 -19 -24q-10 0 -26 19t-18 32q0 43 54 126l74 109l43 62l170 219.5l171 220.5q-235 -184 -236 -184q-95 -69 -148 -69q-64 0 -106 95
q-17 35 -30 88.5t-24 125.5l-16 115l-16 115q-9 79 -65 141q-60 66 -139 69q-100 0 -233 -60l3 19q18 13 43.5 26t60.5 27q84 31 142 33q66 0 139 -62q75 -68 99 -169l31.5 -180l32.5 -180q17 -81 44 -120.5t65 -41.5q54 0 207 123q72 59 138 121.5t130 131.5q5 5 35 39
l86 99q57 67 67 67t11 -15z" />
    <glyph glyph-name="Z" unicode="Z" horiz-adv-x="1447" 
d="M1304 64q-101 -63 -167 -85q-65 -24 -146 -24q-94 0 -250 58q-77 29 -128 43t-77 14q-47 0 -101 -22.5t-116 -70.5q-10 0 -10 8l673 556q-111 52 -197.5 88.5t-152.5 59.5q-150 50 -255 52q-100 0 -172 -57q-72 -56 -72 -132q0 -74 65 -127q64 -52 159 -52q113 0 208 33
l2 -7q-150 -56 -224 -56q-104 0 -175 52q-71 53 -71 130q0 108 103 176q104 70 262 71q48 0 104 -11t120 -32q106 -35 318 -135q17 -3 50 -16l-605 -497q14 2 36.5 5.5t53.5 11.5q20 5 34 6.5l24 2.5q88 0 227 -62q70 -29 122 -44t90 -16q35 0 101.5 20.5t165.5 63.5l1 -5v0
z" />
    <glyph glyph-name="bracketleft" unicode="[" horiz-adv-x="378" 
d="M706 697q-2 -3 -5.5 -3.5t-10.5 -2.5h-76q-48 0 -70 -25l-246.5 -288l-124.5 -147l-184 -224.5t-86 -120.5q-9 -26 14 -27h80q8 0 2 -10l-5 -10q-4 -10 -22 -10h-114q-11 0 -14 14q0 13 80 121l50.5 64l88.5 110l112 135l128 150l139 162l96 112q20 23 74 24h95
q15 0 15 -4z" />
    <glyph glyph-name="backslash" unicode="\" horiz-adv-x="31" 
d="M76 165q0 -9 -3 -12q-51 -44 -90.5 -75t-70.5 -51q-47 -30 -90 -45t-81 -17q9 17 47 38q68 0 278 165q10 6 10 -3z" />
    <glyph glyph-name="bracketright" unicode="]" horiz-adv-x="378" 
d="M592 706q0 -13 -80 -120l-50 -64l-89 -110l-111 -135l-128 -150l-139 -162l-96 -112q-20 -23 -75 -24h-95q-15 0 -15 3l16 21q4 4 16 5l76 1q24 0 41.5 5.5t27.5 19.5l257 301l115 134q118 139 184.5 224t85.5 120q10 25 -13 28h-80q-3 0 -4 4q0 3 1 5l6 11q3 10 21 10
h115q11 0 13 -15z" />
    <glyph glyph-name="asciicircum" unicode="^" horiz-adv-x="336" 
d="M475 729q10 0 10 -17t-17 -83l-13.5 -60.5t-7.5 -38.5q-2 -15 -3.5 -31.5t-3.5 -33.5q-3 -34 -11 -46q-3 -10 -14 -10q-14 0 -4 98q10 74 39 178q-11 -8 -24 -20l-30 -27q-35 -34 -76 -78l-90 -98q-39 -45 -46 -52q-15 -13 -27 -15q-1 0 -2 1q4 4 21 34q22 41 145 164
l61.5 61.5l31.5 30.5q23 22 38 32t23 11z" />
    <glyph glyph-name="underscore" unicode="_" horiz-adv-x="540" 
d="M8 -131v45h525v-45h-525z" />
    <glyph glyph-name="grave" unicode="`" horiz-adv-x="232" 
d="M167 258q-14 0 -40 29l-52 65q-1 2 -1 6.5t-1 12.5q0 7 3 9t10 4q11 0 17 -8l51 -81q16 -29 18 -33q0 -3 -5 -4z" />
    <glyph glyph-name="a" unicode="a" horiz-adv-x="411" 
d="M455 165q0 -8 -4 -11q-51 -44 -87 -72.5t-57 -42.5q-51 -34 -92 -51.5t-74 -17.5q-54 0 -57 81q-24 -20 -69 -43q-43 -23 -72 -23q-20 0 -37 10q-17 8 -17 24q0 45 81 108q42 31 77.5 47t66.5 16q37 0 38 -18q0 -20 -12 -29t-26 -9q0 1 -1 4q-1 2 -2 4.5t-3 6.5
q-6 14 -24 16q-40 0 -90 -44q-51 -42 -51 -76q0 -21 15 -22q53 0 113 41q13 9 45 44q20 25 34 23q13 0 13 -10q0 -9 -17 -39q-16 -28 -16 -41q0 -37 37 -38q45 0 144 68q13 8 46 32l88 65q2 2 6 2t4 -5z" />
    <glyph glyph-name="b" unicode="b" horiz-adv-x="365" 
d="M430 586q0 -9 -19 -28l-25.5 -24l-26.5 -26q-67 -66 -123 -127l-104 -118q-127 -154 -127 -214q0 -21 14 -32q14 -13 35 -13q53 0 106 75q42 62 43 94q0 19 -30 21q-21 0 -41 -26q-10 -13 -13.5 -23t-5.5 -20q0 -10 9 -17q10 -7 10 -11q0 -11 -19 -11q-26 0 -26 33
q0 39 43 75q37 28 68 30q14 0 29 -12q13 -11 13 -26q0 -46 -69 -130q-78 -92 -158 -92q-56 0 -57 55q0 52 64 138q5 5 39.5 46.5l100.5 120.5q20 24 52 57.5l77 78.5q35 33 51.5 52t18.5 24l-4 2q-4 2 -9 7q-13 6 -13 14t81 35q15 0 16 -8z" />
    <glyph glyph-name="c" unicode="c" horiz-adv-x="371" 
d="M415 161q0 -5 -59 -54q-27 -23 -47 -37.5l-33 -24.5q-63 -44 -123.5 -65t-117.5 -22q-42 0 -68 25q-25 21 -25 57q0 52 67 112q35 33 73.5 49.5t79.5 18.5q31 0 34 -30q0 -29 -45 -57q-19 -13 -36 -18.5t-31 -6.5q-23 0 -23 11q0 29 30 29q2 0 4.5 -0.5t7.5 -2.5
q6 -3 19 -5q14 0 26 16q14 16 14 27q0 8 -26 10q-45 0 -99 -48q-49 -46 -52 -86q0 -26 26 -47q20 -20 62 -20q60 0 145 47q28 14 60 35t67 50q59 46 63 46q7 0 7 -9z" />
    <glyph glyph-name="d" unicode="d" horiz-adv-x="505" 
d="M683 599q0 -79 -257 -313l-111.5 -91l-158.5 -122q12 -77 78 -79q43 0 124 46q53 30 124 85q57 45 60 45q6 0 6 -8q0 -7 -82 -74q-38 -30 -66 -50t-47 -32q-71 -41 -130 -43q-71 0 -94 91l-44 -24l-45 -25q-24 -11 -48 -16.5t-47 -7.5q-22 0 -39 14q-16 13 -16 35
q0 36 56 83q80 65 154 68q15 0 29 -11q11 -6 11 -20q0 -25 -17 -28q-3 0 -8 8q-1 5 -2 9t-3 9q-3 9 -36 9q-42 0 -108 -66q-14 -14 -20.5 -26.5t-7.5 -24.5q0 -24 32 -25q11 0 30 5.5t45 17.5q23 10 43.5 20.5t39.5 23.5q8 32 20 61t28 58q2 3 13.5 21.5t34.5 52.5
q43 66 91.5 125.5t107.5 115.5q135 130 216 132q43 0 44 -49zM642 599q0 25 -27 27q-45 0 -147 -92q-51 -45 -97.5 -97.5t-89.5 -113.5q-96 -127 -122 -222l138.5 105.5t125.5 103.5q85 73 149 156q68 88 70 133z" />
    <glyph glyph-name="e" unicode="e" horiz-adv-x="226" 
d="M269 164q0 -6 -4 -11l-88 -72t-57 -42q-100 -67 -181 -69q-69 0 -70 71q0 44 51 103q54 56 92 57q13 0 23 -10q9 -8 11 -20q0 -18 -18 -36l-19 -15.5l-19 -15.5q-30 -26 -77 -49q-1 -24 20 -40q17 -11 37 -11q52 0 155 67l43 31l90 67q3 1 7 1q3 0 4 -6zM2 160q0 5 -13 8
q-17 0 -45 -31q-28 -28 -28 -50q5 0 18 5q65 38 68 68z" />
    <glyph glyph-name="f" unicode="f" horiz-adv-x="302" 
d="M553 645q0 -43 -104 -164q-99 -113 -216 -203q-56 -44 -106.5 -77.5t-98.5 -56.5l-39 -69h166q20 0 20 -19q0 -8 -20 -11l-194 -8l-78.5 -102.5t-40.5 -48.5q-23 -28 -55 -63t-76 -79q-29 -29 -59 -55t-65 -49q-57 -38 -105.5 -57t-93.5 -19q-28 0 -47 15q-20 14 -20 33
q0 23 26 23q4 -3 8 -7q6 -7 23 -20q13 -11 24.5 -15.5t23.5 -6.5q21 0 50 11t69 34q75 44 142 113q41 42 80 87t77 94q67 91 70 112h-11q-24 0 -24 21q0 15 38 17h31l60.5 93.5l103.5 152.5q260 366 395 368q19 0 33 -13q13 -13 13 -31zM514 645q0 23 -35 23q-33 0 -115 -72
q-40 -36 -75 -75t-67 -81l-78 -111l-106 -154l58.5 38.5l82.5 52.5q102 62 215 185q120 129 120 194z" />
    <glyph glyph-name="g" unicode="g" horiz-adv-x="403" 
d="M446 164q0 -6 -4 -11l-83 -68l-34 -27q-77 -56 -172 -90q-35 -45 -93 -98.5t-140 -116.5q-221 -168 -351 -170q-34 0 -55 18q-23 17 -23 44q0 120 259 219q58 22 201 66l111.5 33.5t53.5 17.5q70 79 72 150q0 48 -56 48q-21 0 -41 -5t-40 -16q-41 -24 -41 -53
q0 -40 33 -41q13 0 29.5 5t39.5 17q13 6 25 12.5l25 13.5l-8 -15l-27.5 -16t-27.5 -18q-45 -26 -86 -26q-24 0 -39 15q-12 14 -13 38q0 35 62 74q61 35 117 37q37 0 65 -20q23 -21 24 -54q0 -47 -50 -123q33 10 96.5 51t159.5 113q3 2 7 2q2 0 4 -6zM99 -47l-94.5 -26
t-94.5 -28q-81 -23 -144.5 -47t-108.5 -48q-126 -64 -128 -136q0 -25 28 -44q24 -15 53 -15q31 0 91 24q61 25 113 61q103 75 173.5 139t111.5 120z" />
    <glyph glyph-name="h" unicode="h" horiz-adv-x="387" 
d="M607 659q0 -41 -94 -152q-86 -100 -171.5 -175t-173.5 -127q-15 -10 -30 -19l-31 -18q-30 -19 -88 -43l-57 -84l50.5 32.5l120.5 79.5q55 36 75 37q14 0 14 -15q0 -2 -6.5 -12.5t-21.5 -30.5q-26 -37 -26 -62q0 -9 0.5 -16t3.5 -12q4 -6 13 -8t23 -4q26 0 140 82l77 57
q4 0 6 -9q0 -3 -23 -23q-36 -28 -46 -40q-16 -14 -34.5 -28t-40.5 -29q-68 -39 -108 -40q-58 0 -61 52q0 9 2 24.5t6 38.5q-3 0 -9 -1t-14 -6q-3 -2 -31.5 -22.5l-81.5 -60.5q-29 -21 -47.5 -32t-28.5 -12q-6 0 -9 11q0 9 9.5 25.5t27.5 43.5l52 72t26 37q46 73 112.5 155
t154.5 176q188 204 256 207q24 0 44 -15q20 -14 20 -34zM561 648q0 29 -33 29q-42 0 -123 -75q-24 -24 -61.5 -66l-89.5 -102l-88 -105.5l-56 -67.5q-32 -42 -49 -67.5t-21 -38.5q44 7 174 103q66 50 123.5 100t108.5 103q113 121 115 187z" />
    <glyph glyph-name="i" unicode="i" horiz-adv-x="245" 
d="M126 239q0 -28 -40 -28q-39 0 -39 28q0 29 39 29q40 0 40 -29zM289 164q0 -6 -5 -10l-87 -74t-48 -37q-88 -65 -134 -65q-28 0 -53 17q-23 16 -25 40q0 37 39 87q35 46 62 52q13 0 13 -9q0 -8 -32 -44q-28 -36 -30 -68q0 -40 37 -41q42 0 252 156q2 2 6 2q3 0 5 -6z" />
    <glyph glyph-name="j" unicode="j" horiz-adv-x="264" 
d="M235 292q0 -26 -39 -26t-39 26q0 25 39 27q39 0 39 -27zM148 214q0 -9 -65 -93l-48 -59l-37 -43l-200 -224l-191 -201q-78 -84 -104 -85q-14 0 -14 31q0 14 36 40q32 24 63 50.5t63 58.5l146 150.5l149 166.5q129 151 130 164q-6 -1 -15.5 -5t-22.5 -12q-11 -8 -16.5 -11
t-6.5 -4q-4 1 -5 8q0 3 1.5 6t7.5 8q13 11 29.5 21.5t38.5 21.5q18 8 30 11.5l19 5.5q12 0 12 -6z" />
    <glyph glyph-name="k" unicode="k" horiz-adv-x="513" 
d="M557 159q0 -7 -4 -10q-194 -162 -314 -164q-18 0 -45.5 5.5t-65.5 17.5q-37 13 -57.5 18.5t-25.5 6.5q-42 0 -104 -44l-37.5 -26l-38.5 -28l-18 5l93.5 109l149.5 181q273 337 298 392q-13 0 -29 11q-4 4 -4 19q0 6 21 15q31 12 53 28h37q0 -21 -246 -330l-191 -240.5
t-66 -83.5l69.5 36.5l70.5 37.5q133 70 202 70q35 0 37 -26q0 -20 -20 -21q-8 0 -27 3q-9 2 -15.5 2.5t-11.5 2.5q-65 0 -126 -31q-21 -9 -35.5 -18.5t-25.5 -19.5q136 -54 202 -54q38 0 103 34.5t160 106.5q3 2 7 2t4 -7z" />
    <glyph glyph-name="l" unicode="l" horiz-adv-x="300" 
d="M458 635q0 -85 -147 -244q-92 -98 -207 -195l-81.5 -64l-96.5 -72q1 -21 34 -39q29 -16 68 -16q74 0 173 65q5 4 37 28l94 70q3 2 8 2q3 0 3 -6q0 -7 -3 -11l-81 -64.5t-65 -45.5q-104 -63 -184 -64q-136 0 -138 107q0 94 100 246q96 141 220 246q129 111 210 111
q24 0 40 -16q16 -15 16 -38zM412 624q0 40 -51 36q-28 -2 -68 -25.5t-94 -71.5q-54 -45 -97.5 -92.5t-78.5 -98.5q-46 -67 -77 -151q-25 -69 -28 -114q0 -13 5 -21q27 13 118 86q108 89 198 177q87 85 123 139q50 73 50 136z" />
    <glyph glyph-name="m" unicode="m" horiz-adv-x="684" 
d="M727 163q0 -6 -4 -10l-82 -66.5t-61 -44.5q-95 -62 -163 -64q-58 0 -61 56q0 39 21 78q-11 0 -47 -21l-39.5 -25.5t-17.5 -10.5l-46.5 -27l-47.5 -27q-46 -26 -57 -26q-19 0 -19 18q0 17 26 52l33.5 39.5l34.5 40.5q-230 -143 -244 -145q-15 0 -15 13q6 6 14 16
l17.5 19.5t25.5 26.5q53 60 56 81q0 5 -12 8q-11 0 -13 6q0 9 14 20t28 11q32 0 34 -37q0 -16 -20 -41q-11 -11 -20 -22.5t-20 -22.5l141 84q37 21 54 21q26 0 27 -19q0 -13 -33 -50q-37 -40 -49 -62q147 89 187 108q51 25 78 27q6 0 6 -12q-2 -5 -6 -11l-8 -13l-12 -19
q-26 -39 -26 -67q0 -39 37 -40q45 0 144 66q17 11 50 35l84 62q3 2 7 2q3 0 4 -7z" />
    <glyph glyph-name="n" unicode="n" horiz-adv-x="468" 
d="M511 164q0 -6 -4 -11q-97 -80 -136 -106q-91 -62 -157 -62q-56 0 -57 60q0 11 2.5 27.5t8.5 39.5l-77.5 -45.5t-81.5 -51.5q-59 -39 -64 -39q-1 0 -8 4q-6 3 -6 7q0 7 8.5 23t28.5 44l33.5 49.5t17.5 26.5q-4 6 -4 17q0 8 13 17q14 8 22 9q32 0 34 -26q0 -7 -32 -51
l-25.5 -32t-18.5 -21q190 130 245 130q5 0 8 -13q0 -2 -31 -37q-29 -36 -30 -68q0 -36 51 -37q38 0 127 60q17 10 122 90q3 1 7 1q3 0 4 -5z" />
    <glyph glyph-name="o" unicode="o" horiz-adv-x="302" 
d="M345 164q0 -3 -0.5 -5.5t-3.5 -6.5q-36 -44 -110 -94q-40 -29 -70 -43t-50 -15q-28 0 -48 19q-9 -12 -46 -33q-43 -23 -80 -23q-52 0 -52 41q0 27 20 56.5t58 63.5q37 32 69.5 47t58.5 15q51 0 51 -48q0 -53 -60 -104q13 -13 32 -13q34 0 111 55q33 23 60.5 46t49.5 46
q1 3 6 1q4 0 4 -5zM128 146q0 16 -18 18q-23 0 -40 -20q-15 -18 -17 -43q0 -37 13 -49q60 47 62 94zM51 36q-20 20 -20 52q0 43 18 61q-119 -55 -119 -115q0 -36 29 -37q44 0 92 39z" />
    <glyph glyph-name="p" unicode="p" horiz-adv-x="376" 
d="M231 365q0 -1 -211 -242l38 20l39 21q48 21 87 22q42 0 45 -37q0 -24 -40 -67q-19 -20 -42 -36.5t-52 -33.5q-58 -30 -93 -31q-8 0 -13 3t-10 8q-9 9 -9 23q0 28 19 30q10 0 13 -6q3 -4 8 -14q7 -15 31 -15q31 0 88 48q58 45 58 80q0 16 -36 19q-34 0 -69 -22
q-14 -9 -41.5 -31l-68.5 -57q-52 -44 -107 -104.5t-115 -140.5q-102 -142 -111 -182v-36q0 -14 -10 -20q-8 -6 -19 -8q-6 0 -11.5 1t-10.5 5q-10 5 -13 17q0 18 13 32q11 20 17.5 29.5t7.5 11.5q32 59 93 140t152 187l127.5 146l215.5 237q13 13 22 14q5 0 8 -11z" />
    <glyph glyph-name="q" unicode="q" horiz-adv-x="354" 
d="M224 145q0 -16 -23 -28q-103 -86 -181 -160.5t-132 -137.5l-58.5 -71l-37.5 -46q-23 -31 -37.5 -57.5t-21.5 -49.5l77.5 61.5l115.5 95.5q45 39 77 57.5t53 20.5q22 0 22 -24q0 -9 -9 -19q-8 -9 -15 -9h-9t-13 1h-28q-18 0 -74.5 -43t-153.5 -133l-17.5 -17.5
l-22.5 -23.5q-24 -41 -42 -42q-19 0 -19 18q0 28 54 115q85 134 352 386q-14 -7 -28.5 -13.5t-30.5 -12.5q-19 -8 -31.5 -12.5t-20.5 -4.5q-18 0 -36 18q-16 16 -16 39q0 51 92 104q43 25 80.5 36.5t70.5 13.5q15 0 28 -10q10 -6 12 -21q0 -23 -48 -29v9q2 3 2 5.5t1 3.5
q0 18 -22 18q-14 0 -37.5 -8t-55.5 -25q-40 -20 -59 -41.5t-20 -44.5q0 -14 9 -24q9 -9 19 -9q20 0 45 11q13 5 24.5 11t24.5 14q15 6 37 20t50 34q39 27 53 24z" />
    <glyph glyph-name="r" unicode="r" horiz-adv-x="367" 
d="M410 166q0 -3 -0.5 -5.5t-3.5 -5.5l-89 -72.5t-59 -43.5q-107 -72 -188 -72q-20 0 -39 17q-16 16 -18 40q0 20 28 52l25.5 27.5l25.5 28.5q-10 0 -20.5 -1.5l-23.5 -3.5q-24 -3 -38 -3h-4q-111 -94 -183 -125q-17 0 -17 5q0 8 9 18q29 11 71.5 38t100.5 72q-7 7 -8 15
q0 19 34 56q17 18 31 26.5t25 10.5q16 0 19 -15q0 -24 -34 -55q21 5 35 7l21 3q30 0 30 -21q0 -24 -43 -63q-40 -37 -43 -61q0 -13 11 -26q10 -9 28 -12q59 0 168 71q13 8 47.5 33t91.5 70h6q4 0 4 -5z" />
    <glyph glyph-name="s" unicode="s" horiz-adv-x="306" 
d="M349 164q0 -6 -4 -11q-116 -95 -142 -112q-103 -66 -224 -68q-37 0 -59 15q-8 4 -36 32q0 7 2 11q-17 -10 -32.5 -18t-30.5 -14q-17 0 -18 5q0 3 2.5 7t7.5 11q47 23 96.5 55.5t102.5 74.5q0 1 1 3q28 22 60 24q50 0 50 -45q0 -30 -31 -71q-27 -37 -54 -53q62 0 163 64
q23 13 56 36.5l79 58.5q3 1 7 1q3 0 4 -6zM77 121q0 25 -26 25h-11t-8 -2l-70.5 -57.5t-60.5 -45.5q5 0 9 -2q34 -21 58 -23q21 0 41 9.5t37 30.5q15 17 22 32.5t9 32.5z" />
    <glyph glyph-name="t" unicode="t" horiz-adv-x="286" 
d="M544 383q0 -20 -40 -23h-49h-210q-135 -144 -146 -155q-101 -116 -101 -165q0 -32 43 -32q55 0 150 64l63.5 46.5l64.5 49.5q1 2 6 2q3 0 4 -7q0 -6 -4 -11l-87.5 -70.5t-57.5 -43.5q-99 -68 -166 -69q-24 0 -39 18q-16 19 -16 45q0 60 101 174l73 76l73 78l-361 8
q-13 0 -10 18q1 7 21 9h385l90 88q4 2 9.5 4t15.5 3q5 0 10 -7q3 -6 0 -11l-88 -77l266 -12v0z" />
    <glyph glyph-name="u" unicode="u" horiz-adv-x="396" 
d="M440 164q0 -6 -5 -11q-218 -184 -306 -184q-47 0 -56 78q-26 -29 -77 -53q-39 -17 -57 -18q-16 0 -29 14q-14 12 -15 31q0 34 30 67q15 14 44 35.5t74 50.5q9 0 6 -14q-13 -8 -26 -17.5l-27 -19.5q-48 -42 -49 -76q0 -31 18 -34q10 0 39 14q18 8 32 16.5t25 16.5
q21 15 66 75q36 46 52 46q12 0 13 -11q0 -5 -9 -16t-29 -30q-36 -34 -36 -58q0 -23 14 -40q11 -17 27 -19q43 0 138 64l46 34l86 64q3 1 6 1q4 0 5 -6z" />
    <glyph glyph-name="v" unicode="v" horiz-adv-x="411" 
d="M454 164q0 -7 -4 -11q-34 -39 -100 -87q-45 -32 -81.5 -47.5t-68.5 -16.5q-28 0 -66 41q-77 -76 -128 -77q-25 0 -40 14q-15 12 -15 35q0 25 17.5 62.5t55.5 86.5q5 6 20 8q8 0 9 -6q0 -2 -1 -4q-5 0 -13.5 -12t-23.5 -37q-27 -47 -27 -72q0 -38 38 -41q27 0 95 59
q-16 24 -18 69q0 25 14 45q16 19 38 19q39 0 39 -44q0 -50 -41 -91q25 -34 51 -34q46 0 126 52q73 47 113 93q2 4 7 2q2 0 4 -6zM178 145q0 29 -18 29q-34 0 -35 -43q0 -32 14 -56q24 30 27 33q11 17 12 37z" />
    <glyph glyph-name="w" unicode="w" horiz-adv-x="557" 
d="M600 164q0 -7 -5 -11q-32 -38 -99 -87q-45 -32 -82 -47.5t-68 -16.5q-27 0 -67 41q-76 -76 -127 -77q-16 0 -35 21q-8 11 -12.5 24t-4.5 27q0 21 13 43q-37 -34 -93 -66q-54 -30 -79 -30q-8 0 -13 0.5t-9 4.5q-2 4 -4 25q0 35 39 80l39 38.5l39 39.5q19 19 39 19
q19 0 20 -25q0 -2 -14 -6q-7 -2 -11 -3.5t-6 -2.5q-52 -38 -77 -67t-27 -51q0 -10 16 -11q41 0 210 135q2 2 4.5 2.5t4.5 1.5q7 0 8 -12q0 5 -26 -33q-13 -18 -19.5 -35.5t-6.5 -37.5q0 -38 42 -39q18 0 78 51q-9 12 -13 29.5t-5 39.5q0 26 13 45q8 9 17 14t22 5
q39 0 39 -44q0 -50 -42 -91q27 -34 51 -34q47 0 127 52q75 49 113 93q1 4 6 2q3 0 5 -6zM324 145q0 29 -18 29q-35 0 -35 -43q0 -31 13 -56l19.5 23t8.5 10q11 17 12 37z" />
    <glyph glyph-name="x" unicode="x" horiz-adv-x="446" 
d="M489 164q0 -3 -1 -5.5t-3 -5.5q-69 -70 -144 -119q-88 -61 -152 -63q-61 0 -98 103q-23 -17 -59 -46t-85 -73q-9 -7 -20 -6q-5 2 -7 4q0 7 15 22.5t48 40.5l48 38.5l49 37.5q-21 34 -37 41q-23 9 -23 18q0 23 35 26q25 0 43 -19q2 -4 8 -12.5t14 -24.5q25 19 48.5 35
t46.5 30q58 32 81 32q5 0 8.5 -0.5t5.5 -4.5q0 -5 -3.5 -7.5t-14.5 -7.5l-31.5 -11.5t-17.5 -8.5q-64 -31 -115 -77q8 -13 16.5 -25.5t16.5 -26.5q23 -40 50 -41q41 0 136 65q13 8 45.5 31.5l86.5 64.5q1 1 6 1q2 0 4 -6z" />
    <glyph glyph-name="y" unicode="y" horiz-adv-x="381" 
d="M264 142q0 -9 -65 -76l-99.5 -100l-60.5 -62q-59 -61 -111 -122l-100 -122q-20 -27 -29.5 -46t-11.5 -29q0 -3 1 -6.5t2 -9.5t1 -10.5v-6.5q-12 -32 -47 -34q-2 12 -3 20.5l-2 16.5q0 48 56 108l333 368q-85 -55 -132 -55t-47 49q0 39 32 92q32 44 53 54q16 1 18 -10
q0 2 -35 -39q-33 -40 -36 -79q0 -31 53 -33q40 0 124 69q83 68 95 69q10 0 11 -6z" />
    <glyph glyph-name="z" unicode="z" horiz-adv-x="419" 
d="M462 165q0 -4 -4 -9q-40 -36 -77.5 -66t-75.5 -54q-73 -46 -113 -48q-9 0 -64 12q-52 13 -81 13q-12 0 -25.5 -2t-30.5 -9q-23 -11 -45 -19h-1l-3 1q84 77 191 150h-103q-16 0 -16 9q0 17 17 24q14 5 70 8q33 1 51 3q11 1 18 1q31 0 33 -17q0 -3 -75 -54q-74 -48 -81 -61
q45 0 76 -2.5t48 -7.5q17 -4 30 -5.5t24 -2.5q45 0 122 53q57 38 104 85q10 8 11 -2z" />
    <glyph glyph-name="braceleft" unicode="{" horiz-adv-x="414" 
d="M704 693q0 -9 -20 -9h-57q-55 0 -103 -48l-45 -53.5l-45 -54.5l-133 -151q-23 -28 -44 -45.5t-39 -27.5q-34 -18 -77 -15l-2 -3q13 -9 14 -30q0 -43 -52 -112l-120 -151q-75 -93 -75 -113t40 -20h42q8 0 9 -13q0 -8 -25 -11h-38q-51 0 -54 38q0 25 54 96l139 178
q53 69 54 102q0 10 -9 22q-8 14 -8 19q0 4 2 7q7 14 41 15q62 0 130 77l149 169l44.5 52l44.5 53q44 41 112 44h59q6 0 8 -3.5t4 -11.5z" />
    <glyph glyph-name="bar" unicode="|" horiz-adv-x="239" 
d="M198 720q0 -22 -4 -53t-13 -73q-4 -16 -7 -57.5t-9 -107.5q-5 -79 -7 -154t-3 -147q0 -54 1.5 -103t5.5 -91q0 -8 2.5 -19.5t9.5 -25.5q5 -15 7.5 -26t3.5 -18q0 -14 -9 -29v-1l-2 -4v-5q-9 0 -22 7q-14 34 -22 88t-8 132q0 104 4.5 211.5t12.5 220.5q19 271 48 273
q11 0 11 -18z" />
    <glyph glyph-name="braceright" unicode="}" horiz-adv-x="414" 
d="M525 670q0 -25 -53 -96l-139 -178q-27 -34 -40 -59t-14 -42q0 -5 1.5 -10.5t7.5 -13.5q6 -10 8 -17q0 -4 -2 -8q-8 -14 -41 -15q-62 0 -131 -76l-148 -170l-45 -52l-45 -53q-44 -41 -112 -44h-59q-10 0 -11 15q0 9 19 9h57q55 0 103 48l45.5 53.5l45.5 54.5l133 152
q46 53 84 73q17 8 35 12t41 2l2 3q-13 11 -14 30q0 47 52 112l119 151q38 47 56.5 75.5t18.5 37.5q0 20 -40 20h-42q-6 0 -9 13q0 8 25 11h39q51 0 53 -38z" />
    <glyph glyph-name="asciitilde" unicode="~" horiz-adv-x="544" 
d="M516 361q-8 -23 -24 -43.5t-40 -37.5q-23 -16 -46.5 -24t-49.5 -9q-61 0 -98 75q-17 35 -43 35q-19 0 -40 -7t-44 -22q-44 -29 -68 -65q-3 -3 -7 -4.5l-9 -3.5q-9 0 -6 11q6 17 23 36.5t47 41.5q60 45 113 45q39 0 66 -51q16 -29 26 -42q21 -19 49 -19q80 0 120 89
q7 15 21 12q15 0 10 -17z" />
    <glyph glyph-name="ellipsis" unicode="&#x2026;" horiz-adv-x="648" 
d="M547 23q0 -34 -47 -35q-42 0 -43 35q0 35 44 35q17 0 32 -11q13 -8 14 -24zM331 23q0 -34 -47 -35q-42 0 -43 35q0 35 44 35q17 0 32 -11q13 -8 14 -24zM115 23q0 -34 -47 -35q-42 0 -43 35q0 35 44 35q17 0 32 -11q13 -8 14 -24z" />
    <glyph glyph-name="quoteleft" unicode="&#x2018;" horiz-adv-x="129" 
d="M287 647q0 -5 -14 -19q-10 -7 -15.5 -12.5t-8.5 -9.5q-5 -8 -8.5 -15t-6.5 -15q-2 -10 -5 -18.5t-5 -17.5q-4 -15 -26 -18q-27 0 -27 19q0 22 7 35q3 5 13 18t28 33q20 17 34.5 25t25.5 10q7 0 8 -15z" />
    <glyph glyph-name="quoteright" unicode="&#x2019;" horiz-adv-x="129" 
d="M306 643q0 -11 -2 -19.5t-5 -15.5q-5 -9 -41 -51q-20 -17 -34.5 -25t-25.5 -10q-6 0 -9 15q0 5 15 19q18 13 23 22q9 13 15 32q2 8 5 16.5t5 17.5q6 15 27 18q27 0 27 -19z" />
    <glyph glyph-name="quotedblleft" unicode="&#x201c;" horiz-adv-x="179" 
d="M417 649q0 -8 -12 -17q-10 -6 -16.5 -12.5t-11.5 -13.5q-11 -13 -18 -30t-12 -41q-3 -14 -26 -17q-26 0 -26 19q0 21 9 34q2 2 12.5 15.5t30.5 36.5q46 39 64 40q6 0 6 -14zM327 649q0 -7 -13 -17q-8 -6 -14.5 -12.5l-13.5 -13.5q-18 -24 -30 -71q-3 -14 -26 -17
q-25 0 -25 19q0 22 10 35q0 1 41 51q46 39 64 40q7 0 7 -14z" />
    <glyph glyph-name="quotedblright" unicode="&#x201d;" horiz-adv-x="179" 
d="M437 645q0 -22 -10 -36q0 -1 -41 -51q-23 -20 -38.5 -29t-25.5 -11q-7 0 -7 14q0 8 13 17q8 6 14.5 12.5t13.5 14.5q18 22 30 70q3 15 26 17q25 0 25 -18zM347 645q0 -22 -9 -35q-3 -6 -43 -52q-23 -20 -38.5 -29t-25.5 -11q-6 0 -6 14q0 6 12 17q10 6 16.5 12.5
t11.5 14.5q11 12 18 29t12 41q3 15 26 17q26 0 26 -18z" />
    <glyph glyph-name="bullet" unicode="&#x2022;" horiz-adv-x="486" 
d="M486 384q-23 -39 -56.5 -73t-78.5 -63q-36 -23 -72.5 -36.5t-69.5 -18t-61.5 1t-47.5 22.5q-29 26 -29.5 69.5t29.5 97.5q47 81 135 136q36 22 72.5 36t69.5 18.5t61 -1.5t48 -23q28 -26 30 -67.5t-30 -98.5z" />
    <glyph glyph-name="endash" unicode="&#x2013;" horiz-adv-x="324" 
d="M290 128q0 -42 -91 -44h-113h-14.5t-19.5 1q-8 1 -15 1h-13q-3 0 -3 6q0 3 3 9q24 22 29 24h5.5t8.5 2q12 0 17 1h30.5t53.5 2q32 1 59 2t50 1q13 0 13 -5z" />
    <glyph glyph-name="emdash" unicode="&#x2014;" horiz-adv-x="648" 
d="M613 145q0 -9 -28 -9q-5 0 -11 0.5t-16 2.5q-8 3 -14 4l-12 2q-184 0 -280 -9q-8 0 -69 -9q-28 -4 -42.5 -5t-18.5 -1q-14 0 -25.5 2t-19.5 9q-31 23 -31 33q0 3 7 3q2 0 9 -0.5t20 -2.5t22 -3t15 -2q42 0 195 12q76 5 129 8t83 3q33 0 60 -13q27 -14 27 -25z" />
    <glyph glyph-name="trademark" unicode="&#x2122;" horiz-adv-x="1515" 
d="M763 740q-15 -17 -43 -18h-24.5t-22.5 1l-67 -67l-22 10l28.5 29.5l29.5 29.5q-50 6 -82 20l-175 -232t-115 -144q-22 -25 -44.5 -47.5t-47.5 -42.5q-48 -39 -67 -42q-17 0 -18 24q0 7 7 19q5 5 9 7.5t10 3.5h2q1 0 5 -2q3 -1 6.5 -1t6.5 -1q5 0 42 34q18 17 34 34l32 35
q130 152 283 361q-27 11 -53.5 23t-55.5 23q-45 17 -79.5 24.5t-62.5 8.5q-241 0 -242 -129q0 -45 40 -76q20 -14 44 -22t53 -8q15 0 37 5t51 14q3 1 6 1t5 2q16 0 6 -18q-39 -17 -69.5 -25t-55.5 -9q-30 0 -56.5 9t-51.5 29q-45 37 -46 88q0 78 85 129q85 52 218 52
q31 0 95.5 -19t164.5 -56q49 49 71 49q5 0 8 -11q-1 -2 -4 -4q-2 -2 -5 -4.5l-8 -6.5q-20 -17 -31 -32l31.5 -9.5t55.5 -14.5q3 3 5 5.5t5 5.5q83 69 172 69q48 0 80 -25q15 -13 22.5 -29t7.5 -39q0 -20 -1.5 -36.5t-7.5 -30.5q-9 -38 -47 -97q50 45 88.5 74t66.5 46
q40 26 76 26q49 0 49 -47q0 -28 -55 -119l112 107t71 62q71 56 121 56q41 0 41 -53q0 -6 -12 -47t-38 -118q-24 -77 -36.5 -127.5t-13.5 -76.5v-7.5t1 -9.5v-9.5t1 -9.5q0 -5 -10 -11q-5 -2 -8.5 -3t-8.5 -1q-20 7 -20 48q0 34 12 82.5t38 113.5q25 65 37 105.5t13 59.5
q0 16 -30 19q-42 0 -124 -74l-107.5 -105.5l-108.5 -106.5q-3 -3 -21.5 -25l-53.5 -63q-60 -69 -69 -69t-10 3v16q0 9 73 100l63.5 81t28.5 39q65 106 65 131q0 19 -17 21q-23 0 -62.5 -24.5t-97.5 -75.5q-54 -45 -100.5 -91.5t-87.5 -96.5q-92 -110 -108 -111q-6 0 -7 10
q0 7 6.5 18t21.5 28l28 34l28 34q35 43 64 83.5t53 81.5q30 50 44.5 86.5t15.5 60.5q0 29 -25 51q-21 19 -58 21q-70 0 -132 -46q47 -9 49 -18z" />
    <glyph glyph-name="afii10110" unicode="&#x45e;" horiz-adv-x="397" 
d="M414 608q45 -3 47 -52q0 -46 -47 -86q-43 -34 -102 -36q-34 0 -35 16q0 32 37 32q8 0 18 -5q9 -4 30 -6q22 0 41 25q22 24 22 55q0 8 -14 18q-14 7 -28 7q-76 0 -167 -78t-94 -149q0 -42 35 -67q36 -27 95 -27q48 0 125 44q26 0 26 -10q0 -5 -9 -11q-37 -25 -62 -34
q-23 -9 -52 -13t-64 -5q-22 0 -40.5 3.5t-35.5 11.5l-61 -79l-17 12l60 78q-46 32 -46 90q0 69 94 160q103 95 218 104l69 92l17 -12z" />
    <glyph glyph-name="afii10023" unicode="&#x401;" horiz-adv-x="894" 
d="M885 986q0 -32 -21 -56q-20 -21 -44 -21q-15 0 -15 33q0 20 17 40q16 22 39 22q24 0 24 -18zM706 986q0 -31 -22 -56q-20 -21 -43 -21q-17 0 -17 33q0 18 17 40q18 22 40 22t25 -18zM911 711q0 -61 -87 -120q-84 -58 -177 -60q-75 0 -75 49q0 31 35 37q29 3 29 -11v-4.5
t-2 -9.5q-1 -5 -1 -9.5v-6.5q3 -17 43 -18q72 0 133 43t61 90q0 37 -42 62q-41 24 -107 24q-63 0 -126.5 -18.5t-130.5 -56.5q-129 -78 -130 -152q0 -35 34 -79q17 -22 25 -36t10 -22q0 -31 -90 -77q-70 -34 -111 -56t-55 -32q-64 -44 -87 -65q-37 -40 -39 -99
q0 -62 47 -102q49 -40 124 -40q60 0 116 9.5t110 27.5q55 20 115 51t127 76q2 -1 3.5 -4.5t5.5 -9.5q-138 -100 -255 -143q-60 -22 -122 -32t-130 -11q-90 0 -140 40q-50 39 -51 109q0 40 15 73t44 62q30 32 132 88l64.5 35l65.5 35q61 34 61 49q0 12 -34 61q-35 45 -35 75
q0 86 162 181q162 92 316 93q32 0 58 -6.5t48 -21.5q43 -26 43 -68z" />
    <glyph glyph-name="copyright" unicode="&#xa9;" horiz-adv-x="1101" 
d="M891 616q0 -78 -96 -159q-92 -74 -174 -74q-10 0 -25 6q-16 9 -17 22q0 14 14 27q15 13 31 13q5 -22 9 -27q2 -7 12 -7q45 0 96 32q50 31 71 55q32 37 32 89q0 77 -100 80q-144 0 -289 -123q-152 -129 -153 -288q0 -77 48 -120q47 -41 133 -43q47 0 113 25q30 10 74 32
l25.5 12l10.5 5q10 0 11 -1v-10q0 -16 -68 -51q-58 -26 -106 -39t-89 -15q-87 0 -142 51q-52 47 -54 130q0 110 85 226q77 107 197 176q120 72 227 72q54 0 88 -28q36 -26 36 -68zM1048 594q0 -149 -94 -310q-95 -159 -240 -264q-155 -110 -311 -110q-129 0 -211 72
q-90 77 -90 207q0 150 75 297q67 126 177 215q54 41 103.5 62t97.5 26v-13q-53 2 -149 -65q-111 -77 -184 -191q-45 -72 -68 -147.5t-23 -159.5q0 -114 79 -193q75 -78 199 -78q78 0 152 25t149 77q135 94 222 246q43 77 64 152t23 151q0 95 -71 152q-65 48 -173 49
q-111 0 -246 -86q-65 -43 -120 -93.5t-101 -112.5q-1 0 -3 1t-4 1.5t-5 2.5q35 48 78 92t95 85q165 135 317 137q126 0 194 -58t68 -169z" />
    <glyph glyph-name="logicalnot" unicode="&#xac;" horiz-adv-x="833" 
d="M709 417v-245h-29v214h-556v31h585z" />
    <glyph glyph-name="registered" unicode="&#xae;" horiz-adv-x="1101" 
d="M1048 594q0 -149 -94 -310q-95 -159 -240 -264q-155 -110 -311 -110q-129 0 -211 72q-90 77 -90 207q0 150 75 297q67 126 177 215q54 41 103.5 62t97.5 26v-13q-53 2 -149 -65q-111 -77 -184 -191q-45 -72 -68 -147.5t-23 -159.5q0 -114 79 -193q75 -78 199 -78
q78 0 152 25t149 77q135 94 222 246q43 77 64 152t23 151q0 95 -71 152q-65 48 -173 49q-111 0 -246 -86q-65 -43 -120 -93.5t-101 -112.5q-1 0 -3 1t-4 1.5t-5 2.5q35 48 78 92t95 85q165 135 317 137q126 0 194 -58t68 -169zM906 621q0 -62 -97 -143q-78 -62 -164.5 -92.5
t-182.5 -32.5h-22l219 -311q0 -10 -12 -11h-9.5t-21.5 1q-17 0 -93 130q-45 75 -76.5 121t-52.5 66q-25 -48 -76 -137q-69 -107 -116 -107q-21 0 -21 24q0 10 8 19q6 10 18 13q4 0 8 -4q2 -1 3.5 -1t3.5 -2q14 0 67 83l36 61.5l38 61.5q-51 12 -91 27q-16 7 -17 24
q0 3 1.5 7.5t6.5 10.5q6 9 19 11q16 -4 42.5 -10l64.5 -15q67 97 163 178q133 108 243 109q46 0 80 -23q28 -20 31 -58zM854 593q0 21 -22 37q-12 8 -27 11t-34 4q-164 0 -342 -235h46q113 0 238 51q135 58 141 132z" />
    <glyph glyph-name="degree" unicode="&#xb0;" horiz-adv-x="389" 
d="M522 557q-34 -66 -101 -110q-64 -46 -131 -46q-43 0 -68 22q-23 24 -24 60q0 15 4 32t14 36q30 64 99 109q67 46 132 46q40 0 68 -23q22 -22 25 -61q0 -29 -18 -65zM491 551q13 30 14 55q0 71 -80 71q-49 0 -101 -36q-51 -34 -77 -84q-13 -27 -16 -56q0 -17 5.5 -29
t16.5 -23q20 -19 58 -19q50 0 103 35q26 17 44.5 38.5t32.5 47.5z" />
    <glyph glyph-name="afii10098" unicode="&#x491;" horiz-adv-x="233" 
d="M166 367q0 -15 -9 -23l-68 -57q-15 -11 -24 -16.5t-14 -7.5q-6 0 -6 7q0 6 19 28l70 73q7 9 17 9q14 -3 15 -13z" />
    <glyph glyph-name="paragraph" unicode="&#xb6;" horiz-adv-x="500" 
d="M452 694h-65v-694h-28v694h-97v-694h-28v382q-88 4 -137 50.5t-49 119.5q0 37 13.5 68.5t38.5 54t60.5 35t80.5 12.5h211v-28z" />
    <glyph glyph-name="afii10071" unicode="&#x451;" horiz-adv-x="254" 
d="M226 86q1 -5 -3 -11q-83 -53 -144 -79t-117 -26q-69 0 -70 71q0 45 51 102q52 57 92 57q9 0 20 -4t13 -25q1 -17 -18.5 -37t-39.5 -37q-15 -13 -33 -25.5t-41 -24.5q-2 -13 3 -19t16 -14q18 -10 37 -11q33 0 90.5 17.5t133.5 69.5q3 2 6.5 1.5t3.5 -5.5zM24 160
q0 5 -13 8q-16 0 -45 -31q-14 -15 -21 -31t-7 -27q2 0 13 4t18 9q26 15 39.5 34t15.5 34zM116 266q0 -23 -34 -26q-29 0 -30 26q0 25 31 25q14 0 23 -8q10 -7 10 -17zM26 266q0 -23 -34 -26q-29 0 -30 26q0 25 31 25q12 0 23 -8q10 -7 10 -17z" />
    <glyph glyph-name="afii61352" unicode="&#x2116;" horiz-adv-x="881" 
d="M-1 -87l17.5 60.5l14.5 52l14 51.5l16 58q19 73 42 136.5t48 105.5q12 20 24.5 21.5t24 -7.5t21.5 -24.5t17 -27.5l19 -33.5l15.5 -26l15.5 -26l19 -33.5l34.5 -61t34.5 -55t32 -38.5t27 -12.5q21 4 38.5 27t32.5 54.5t27.5 67.5l22.5 67l19.5 63.5t18 54.5l20.5 56.5
l27 69.5q12 28 29 63.5t36.5 71.5l38.5 68t36 55q10 15 27 34t34.5 32.5t32 16.5t19.5 -15q4 -14 -2 -17l-22 -11t-42 -29t-61 -71q-14 -20 -31.5 -50.5l-34.5 -63t-31.5 -64t-22.5 -54.5l-22 -58.5l-12.5 -33t-11.5 -33l-19 -58.5q-16 -48 -30 -103t-31 -101t-39 -75.5
t-55 -25.5q-21 2 -37 17.5t-41 54.5q-23 35 -42 68.5t-41 79.5q-9 18 -16.5 31.5t-16 26.5l-17.5 26.5l-21 30.5q-10 15 -18.5 20t-15 4.5t-11 -6t-7.5 -11.5q-13 -32 -22 -56.5t-19 -58.5q-26 -78 -39.5 -143l-27.5 -127q-3 -11 -5.5 -25.5t-6 -26t-9 -18t-15.5 -2.5
q-9 5 -6.5 16t6.5 21z" />
    <glyph glyph-name="afii10017" unicode="&#x410;" horiz-adv-x="1040" 
d="M918 448q0 -35 -3.5 -83.5t-10.5 -111.5q-13 -123 -30 -194q5 2 8 4t8 6q6 6 12 6q11 0 11 -8q0 -6 -43 -39l-6 -54q-1 -8 -5 -13.5t-11 -11.5q-11 -8 -25 -11q-7 0 -7 17q0 11 0.5 25t3.5 31q-107 -46 -188 -46q-53 0 -191 54t-174 54q-81 0 -161 -29
q-32 -12 -65.5 -29.5t-73.5 -42.5l-62 -40.5l-65 -41.5q-9 -5 -30 -7q-13 0 -13 12l37 17q32 17 79 48.5t110 80.5q36 27 94 81l140 135l141 143.5l114 122.5q123 140 247 140q91 0 131 -78q14 -26 20.5 -60t7.5 -77zM866 427q0 201 -129 201q-77 0 -169 -80
q-16 -13 -176 -176l-128 -131l-46 -47q-46 -45 -93 -86.5t-95 -79.5l80.5 34t46.5 18q52 15 122 15q37 0 93.5 -12t133.5 -39l118.5 -36t49.5 -14q37 0 85 17q17 6 33 12.5t33 14.5q7 53 13 105.5t13 106.5q15 126 15 177z" />
    <glyph glyph-name="afii10018" unicode="&#x411;" horiz-adv-x="877" 
d="M1034 767q-48 -28 -83 -30q-14 0 -26 0.5t-24 3.5l-482 123q-35 8 -65 13t-54 5q-18 0 -44 -4t-56 -12.5t-62 -21.5t-61 -31q-129 -74 -131 -173q0 -29 19.5 -57t51.5 -50t74 -35.5t86 -13.5q63 0 164 48q12 1 16 -11q-74 -33 -132.5 -49t-106.5 -18q-93 0 -150 44
t-59 124q0 109 136 197q34 22 73 38.5t78.5 28t78.5 17t74 5.5q112 1 322 -54l232.5 -58t130.5 -29zM71 -5q67 -6 132 -6t129.5 8t130 25t132.5 46q184 76 184 174q0 20 -13.5 39t-37 36.5t-56 33.5t-70.5 29q-60 21 -119 29.5t-97 9.5l-59 -85l-55.5 -77.5l-55.5 -76.5
l-46 -60l-47 -60zM164 400l50.5 18l55.5 19q24 8 54 10.5t54 6.5q69 91 139 164t139 121l-9 -22q-10 -9 -38.5 -39.5l-64 -69.5l-71.5 -80.5t-61 -73.5q32 0 71.5 -5t84.5 -17q32 -8 75.5 -22.5t83 -35.5t67 -49.5t27.5 -64.5q0 -108 -230 -216q-95 -44 -175.5 -64.5
t-148.5 -27.5t-124 -4t-102 6l-118 -133q-17 -19 -31 -19q-6 0 -6 11l30 36l38 45l54 63q-81 21 -81 37q0 23 34 26q6 0 16 -2t23 -7q25 -7 42 -8l59 74l53 68l51 68l48 65l48 67l51 73q-22 2 -67.5 -5.5t-117.5 -25.5l-3 13v0z" />
    <glyph glyph-name="afii10019" unicode="&#x412;" horiz-adv-x="877" 
d="M918 691q0 -64 -58.5 -137t-175.5 -158q136 -73 136 -137q0 -110 -228 -216q-210 -95 -383 -97q-140 0 -169 7l-117 -133q-16 -19 -31 -19q-7 0 -7 10l124 145q-81 19 -81 37q0 24 33 25q7 0 16.5 -1.5t22.5 -6.5q11 -4 21.5 -5.5t21.5 -3.5l174 232q-172 18 -172 79
q0 56 119 95q27 10 56.5 17t61.5 13l48 8l48 8q137 180 251 253q91 57 202 59q35 0 60 -21q27 -20 27 -53zM873 662q0 26 -28 48q-26 18 -70 18q-107 0 -225 -111q-20 -20 -54 -60.5l-83 -103.5q32 0 70.5 -5t84.5 -16q25 -8 49 -14t49 -13q50 42 85.5 74.5t58.5 57.5
q61 70 63 125zM608 375q-75 21 -130 31t-91 12l-103 -142q93 6 203 45q43 14 73.5 27t47.5 27zM780 241q0 41 -63 83q-57 40 -86 40q-163 -91 -377 -130l-182 -241q64 -3 159 -3q185 0 364 76q185 78 185 175zM352 416q-21 2 -68 -5.5t-120 -24.5q-84 -20 -84 -52
q0 -23 71 -44q54 -16 97 -16l104 142v0z" />
    <glyph glyph-name="afii10020" unicode="&#x413;" horiz-adv-x="985" 
d="M1257 663q-5 -5 -24 -15q-20 -7 -36 -8q-185 0 -248 38l-268.5 -358t-181.5 -225q-34 -38 -68 -72t-69 -65q-73 -61 -101 -63q-19 0 -20 26q0 12 9 26q12 14 24 15q2 0 11 -4q6 -3 18 -4q7 0 66 51q31 28 57.5 55.5t50.5 55.5q98 114 207 255l234 312q-322 124 -399 125
q-378 0 -380 -209q0 -71 65 -121q64 -48 154 -49q21 0 55 7.5t83 21.5q11 4 17 2q4 -1 1 -10q-110 -52 -185 -52q-92 0 -162 56q-35 27 -51.5 59.5t-18.5 70.5q0 117 126 192q124 75 324 75q91 0 412 -114q35 39 61.5 57.5t44.5 19.5q4 0 4 -8q0 -2 -30 -25
q-17 -13 -28.5 -25.5t-21.5 -25.5q17 -8 56.5 -16.5l103.5 -21.5q108 -20 108 -29z" />
    <glyph glyph-name="afii10021" unicode="&#x414;" horiz-adv-x="952" 
d="M972 424q0 -120 -103 -236q-49 -54 -112.5 -98t-142.5 -79q-157 -68 -317 -68q-56 0 -117.5 9.5t-130.5 28.5q-134 40 -135 71q0 26 29 26q4 -1 8 -4q4 -2 9.5 -5t13.5 -7q18 -9 39 -17.5t45 -16.5q34 -10 71.5 -18t82.5 -15q51 31 89 57t65 48q35 29 68 62.5t65 74.5
q29 38 89 124l153 222q11 0 14 -18q-21 -41 -78.5 -124.5l-152.5 -211.5q-36 -51 -109 -116q-84 -76 -171 -123q24 -1 54 -1.5t69 -2.5q197 0 380 124q187 126 187 284q0 81 -68 167q-17 20 -56 59l-103 99l-62 54l-62 54q-23 25 -34.5 50t-12.5 54q0 83 11 86h15
q-3 -15 -3 -29q0 -34 17 -67.5t52 -71.5l70.5 -61l70.5 -61l94.5 -88t43.5 -42q63 -78 65 -173z" />
    <glyph glyph-name="afii10022" unicode="&#x415;" horiz-adv-x="846" 
d="M911 711q0 -62 -87 -120q-84 -58 -177 -60q-75 0 -75 49q0 31 35 37q29 3 29 -11v-5t-2 -9q-1 -5 -1 -9.5v-6.5q3 -18 43 -19q72 0 133 43q61 45 61 91q0 37 -42 62q-41 23 -107 24q-63 0 -126.5 -18.5t-130.5 -57.5q-129 -78 -130 -151q0 -34 34 -80q17 -21 25 -35.5
t10 -22.5q0 -31 -90 -76l-111 -56.5t-55 -31.5q-64 -45 -87 -65q-37 -40 -39 -99q0 -62 47 -103q49 -39 124 -39q60 0 116 9.5t110 27.5q109 39 242 127q1 0 9 -15q-138 -99 -255 -143q-60 -21 -122 -31t-130 -12q-88 0 -140 41q-50 39 -51 109q0 76 59 135q16 16 48.5 38
t83.5 50l64.5 34.5l65.5 34.5q61 35 61 49q0 13 -34 62q-35 45 -35 75q0 86 162 181q81 46 159.5 68.5t156.5 24.5q63 0 106 -28t43 -68z" />
    <glyph glyph-name="afii10024" unicode="&#x416;" horiz-adv-x="1177" 
d="M131 -37q-34 -6 -70 7.5t-65 40.5t-45.5 63t-11.5 75l6 2q5 -36 20.5 -68t39 -54.5t54 -33.5t65.5 -5q29 5 51 12t42.5 19t42 29.5t48.5 43.5l62.5 60.5l83.5 80.5q7 6 19 17.5l27 25l31.5 29.5l32.5 31l82 77q-8 36 -18.5 65t-22 53t-23 44l-21.5 39q-31 57 -80 81
t-108 24q-58 0 -119.5 -31.5t-128.5 -88.5l-6 12q42 41 79 69.5t70 45.5q62 32 146 32q174 0 257 -264l70 222q-2 11 2 23q0 8 6 12.5t17 9.5q17 7 30.5 2.5t19.5 -19.5q3 -8 -5 -23.5t-22 -38.5q-2 -3 -13.5 -32l-34.5 -86l-46 -123l230 179l51 39t61 32q20 8 37.5 11
t35 4.5t35 2t37.5 2.5l4 -13q-47 -10 -79 -14.5t-60 -18.5l-56.5 -29t-53.5 -36l-244 -190q6 -23 22 -60.5l35 -78.5l37 -79l28 -60l24.5 -58t27 -56t32.5 -45.5t42 -25.5q28 -8 54.5 -1t51 23t48 39t46.5 49l12 -8q-51 -66 -99.5 -98.5t-107.5 -27.5q-42 3 -81 37t-62 83
l-140 313l-26 -67q-28 -71 -45.5 -122t-28 -86t-15 -57t-6.5 -37t-3.5 -25t-4.5 -20q-17 -3 -22 10q-4 5 -4 14q-2 15 4 46.5t18.5 74.5t32 95.5t43.5 109.5l33 78l-36 -34l-44.5 -42.5l-47.5 -46l-45 -43.5l-80.5 -81.5t-78 -72t-82.5 -56t-94 -33.5z" />
    <glyph glyph-name="afii10025" unicode="&#x417;" horiz-adv-x="662" 
d="M721 614q1 -94 -223 -209q58 -6 94 -40.5t36 -82.5q0 -31 -17 -66.5t-47.5 -71t-73 -68t-92.5 -57.5q-57 -28 -114.5 -41.5t-117.5 -14.5q-125 0 -211 110l7 1q36 -27 65 -45t53 -28q45 -16 109 -17q145 0 266 88t121 195q0 25 -9.5 47t-25.5 38.5t-38 25.5t-46 9
q-148 -58 -177 -58q-17 0 -27.5 7t-7.5 25q1 7 9.5 16t27.5 17q21 9 46 13t49.5 5t45.5 0t35 -3q51 23 90 48.5t64.5 50t38 47t11.5 40.5q-2 22 -12.5 35.5t-27 20t-38 8t-45.5 0.5q-26 -1 -57 -7.5t-69 -21.5t-84 -40.5t-101 -64.5l-2 7l36.5 29l37.5 30q72 54 148.5 78.5
t161.5 26.5q56 0 83 -23t28 -59zM394 390q-12 2 -37 3.5t-57 -9.5q-26 -9 -29 -20.5t8 -14.5q8 -3 22 3t35 14q19 6 33 11.5t25 12.5z" />
    <glyph glyph-name="afii10026" unicode="&#x418;" 
d="M1389 676q0 -5 -212 -307q-107 -149 -159.5 -232.5t-54.5 -103.5q0 -23 16 -23q2 0 4 0.5t6 2.5q9 0 12 2q-29 -38 -56 -38q-10 0 -19 8q-10 7 -10 17q0 39 96 187l82 129t31 49l-123.5 -119l-124.5 -119q-158 -144 -240 -145q-16 0 -29 6.5t-23 22.5q-18 25 -21 63
q0 20 16 78t50 158q33 98 49 167.5t16 112.5q0 111 -67 168q-66 57 -197 59q-32 0 -64 -7t-65 -24q-21 -10 -44 -24.5t-47 -34.5q-20 -15 -30.5 -22t-12.5 -9q-10 0 -13.5 2t-5.5 6q0 6 82 65q128 87 248 89q124 0 198 -68q75 -66 75 -178q0 -29 -16.5 -99t-51.5 -180
q-32 -109 -48 -170.5t-18 -75.5q0 -24 16 -44q16 -19 36 -19q65 0 325 246q114 109 182.5 180.5t93.5 107.5q61 88 74 104q23 29 34 29q9 0 10 -1v-16v0z" />
    <glyph glyph-name="afii10027" unicode="&#x419;" 
d="M1389 675q0 -7 -212 -307q-107 -149 -159.5 -232.5t-54.5 -103.5q0 -23 16 -23q5 0 10 2q4 1 7 1t5 2q-28 -37 -56 -39q-9 0 -19 9q-10 7 -10 17q0 39 96 187l82 129t31 49l-123.5 -119l-124.5 -119q-158 -143 -240 -146q-33 0 -52 29q-10 14 -14.5 30t-6.5 34
q0 20 16 78t50 157q65 194 65 281q0 111 -67 168q-68 59 -197 59q-32 0 -64 -7t-65 -24q-21 -10 -44 -24.5t-47 -34.5q-20 -15 -30.5 -22t-12.5 -9q-10 0 -13.5 1.5t-5.5 6.5q0 6 82 65q130 88 248 89q123 0 198 -67q75 -68 75 -180q0 -29 -16.5 -98.5t-51.5 -179.5
q-32 -109 -48 -170t-18 -77q0 -23 16 -43q16 -19 36 -19q65 0 325 246q225 216 276 287l48 70t26 35q23 29 34 29q9 0 10 -1v-16v0zM1332 908q0 -6 -4 -10l-87.5 -73.5t-48.5 -36.5q-44 -32 -80 -51.5t-60 -19.5q-14 0 -30.5 -1t-32.5 3t-31 14t-25 33q-12 28 -9 57t24 53
q7 8 18 14t21 7t17 -4.5t7 -18.5q0 -11 -4.5 -19.5t-9.5 -16t-8.5 -15.5t-3.5 -18q2 -36 28.5 -50t64.5 -6q24 6 45 17.5t47.5 31l62.5 48l89 67.5q1 2 6 2q3 0 4 -7z" />
    <glyph glyph-name="afii10028" unicode="&#x41a;" horiz-adv-x="1469" 
d="M768 248q77 -50 206 -120l313 -163l-69 -23l-107 54l-97 51q-112 57 -188.5 101t-121.5 76q-60 -32 -128.5 -56.5t-146.5 -40.5l-103 -116.5t-71 -73.5q-68 -66 -187 -155q-3 4 -3 13q0 6 36 35l56 44.5t53 46.5q45 41 90.5 90.5l95.5 108.5q-54 -8 -93 -11.5t-65 -3.5
q-54 0 -94.5 11t-69.5 36q-46 38 -47 100q0 68 81 116q82 47 201 47q26 0 54 -3.5t58 -11.5q40 -9 150 -45l272 333l11 -23l-107 -134l-150 -188l53.5 -29.5l82.5 -46.5q67 35 143.5 84t165.5 114q78 57 145 111.5t126 108.5l29 28.5l55 56.5q36 34 50 37q9 0 23 -8
q10 -7 11 -14q0 -44 -218 -216q-237 -183 -495 -321zM565 303l-47 -60.5l-58 -72.5q62 9 217 69zM541 310q-159 72 -291 72q-77 0 -135 -35q-55 -34 -55 -84q0 -47 55 -82q55 -33 139 -33q13 0 55 3t116 10l116 149v0z" />
    <glyph glyph-name="afii10029" unicode="&#x41b;" horiz-adv-x="1436" 
d="M518 113q-84 -58 -164 -94t-155 -36q-73 0 -121 36q-24 18 -35 40.5t-13 51.5q0 110 135 220q130 104 242 104q14 0 32 -7.5t20 -23.5q0 -17 -16 -31.5t-33 -15.5q-6 28 -12.5 37t-23.5 10q-47 4 -111.5 -25.5t-135.5 -101.5q-26 -25 -39.5 -60.5t-8.5 -72.5
q8 -62 42 -92t112 -30q22 0 51 8t62 22t68 32.5t69 39.5q28 16 58 40.5l62.5 53.5l68 61.5l73.5 64.5l88 73.5l77 65.5l169 143t135 124q14 0 15 -11q-329 -294 -331 -521q0 -64 33.5 -112t90.5 -72.5t131.5 -21.5t155.5 40q28 13 47.5 24.5t37.5 25t37.5 30.5l47.5 41
l13 -4q-58 -55 -107 -93t-95.5 -61t-93.5 -32.5t-101 -7.5q-55 2 -99 16t-78 45q-28 25 -44 57.5t-21.5 69.5t0 77.5t21.5 80.5q22 58 87 162q-47 -37 -112 -96.5t-165 -142.5q-42 -37 -83.5 -70t-82.5 -61z" />
    <glyph glyph-name="afii10030" unicode="&#x41c;" horiz-adv-x="1699" 
d="M1410 13q48 0 88 7.5t80 26t84 49t98 77.5l13 -4q-58 -55 -107 -93t-95.5 -61t-93.5 -32.5t-101 -7.5q-54 1 -99 17t-77 44.5t-50 68.5t-19 90q0 31 5 60.5t17.5 62.5t34 73t54.5 92q-24 -18 -54 -46.5l-64.5 -63l-73 -73.5l-78.5 -79l-34.5 -35l-46.5 -47l-51 -50.5
l-49 -46.5t-40 -35t-23 -15l-16 2q-7 0 -2 29t18.5 74.5t33 100t41.5 105.5q13 30 37 79t56 101q-47 -37 -112 -96.5t-165 -142.5q-42 -37 -83.5 -70t-82.5 -61q-83 -58 -163 -94t-156 -36q-73 0 -121 36q-47 36 -48 92q0 110 135 220q130 104 243 104q7 0 15.5 -2t16 -5.5
t13.5 -9.5t7 -14q0 -17 -16.5 -31.5t-33.5 -15.5q-6 28 -12.5 35.5t-23.5 11.5q-24 6 -59 -6t-70 -32t-64.5 -43t-43.5 -39q-25 -26 -41 -63t-17 -77q0 -122 154 -122q22 0 51 8t62 22t68 32.5t69 39.5q28 16 58 40.5l62.5 53.5l68 61.5l73.5 64.5l88 73.5l78 65.5
q185 153 303 267q14 0 15 -11q-54 -48 -105 -107.5t-96 -124t-82.5 -130.5t-66 -127.5t-46 -115t-21.5 -92.5q12 8 33 28l42 41.5l38 39.5l21 22l153.5 156l156.5 154q88 82 165.5 145.5t138.5 121.5q14 0 15 -11q-331 -294 -331 -521q0 -45 16 -82.5t46 -64.5t72.5 -42
t96.5 -16z" />
    <glyph glyph-name="afii10031" unicode="&#x41d;" horiz-adv-x="1406" 
d="M1599 896q-15 -22 -79 -95q-69 -78 -107 -132q-73 -98 -139 -195.5l-129 -199.5q21 -9 249 -36v-16l-288 -4l-60 -93v-22q0 -10 -7 -18q-6 -8 -13 -8q-6 0 -8 2t-4 7q0 10 7.5 28.5t21.5 49.5q28 56 30 58l-141 34q-155 -159 -314.5 -237t-327.5 -79q-117 0 -197 62
q-82 65 -82 154q0 56 30.5 103.5t90.5 89.5q119 81 286 82q83 0 301 -56l164.5 -41.5t61.5 -14.5l67.5 91.5l94.5 135.5l86 125t58 76q10 13 20.5 24.5l22.5 25.5q13 17 13 33q0 7 -6 18q-5 12 -5 20q0 11 50 35q23 11 36.5 15.5t20.5 5.5q10 0 10 -23q0 -9 -48 -60l-56 -61
t-36 -42q-31 -39 -73.5 -99.5l-97.5 -144.5l-85.5 -128t-37.5 -54l136 -31l41.5 70t42.5 69q101 160 182 273q81 114 131.5 169.5t71.5 57.5q12 0 15 -24zM901 267q-38 8 -296 78q-71 18 -129.5 27.5t-106.5 9.5q-69 0 -127.5 -14.5t-106.5 -45.5q-94 -58 -94 -152
q0 -82 78 -134q41 -26 89.5 -39t108.5 -13q193 0 366 97q143 78 218 186z" />
    <glyph glyph-name="afii10032" unicode="&#x41e;" horiz-adv-x="911" 
d="M1016 588q0 -67 -29 -137t-89 -145q-55 -70 -125.5 -128.5t-155.5 -106.5q-89 -49 -173.5 -73t-165.5 -26q-106 0 -175 69q-69 66 -70 170q0 78 23.5 150t72.5 141q41 57 93 105t119 86q59 35 112 52.5t102 20.5v-13q-49 5 -156 -54q-65 -35 -117.5 -76.5t-94.5 -93.5
q-54 -63 -79.5 -131t-26.5 -141q0 -109 67 -173q35 -32 79 -48.5t101 -18.5q138 0 290 85q75 41 135 91.5t109 113.5q99 129 101 258q0 81 -65 139t-158 58q-44 0 -96 -17.5t-113 -54.5q-127 -74 -207 -182q-6 -6 -20 -3q147 189 283 250q34 15 55 23.5t31 11.5q42 14 94 14
q120 0 185 -55q64 -55 64 -161z" />
    <glyph glyph-name="afii10033" unicode="&#x41f;" horiz-adv-x="1094" 
d="M1064 652q0 -49 -90 -380q-17 -60 -29.5 -122t-22.5 -128q-26 4 -33 21q-2 6 -4 31q0 53 19 120l14.5 54.5l15.5 55.5l16.5 70t31.5 123q20 81 21 120q0 28 -15 46q-14 21 -36 22q-18 0 -51 -19.5t-81 -60.5q-48 -39 -92.5 -85.5t-89.5 -100.5l-74 -89l-74 -89
q-33 -38 -61.5 -74.5l-54.5 -72.5q-27 -40 -44 -63l-24 -33q-11 -14 -21 -20.5t-18 -7.5q-9 0 -9 8q0 17 79 130q151 212 214 331q57 114 57 190q0 31 -8 55t-27 44q-32 33 -79 33q-36 0 -79 -13.5t-96 -39.5q-89 -44 -143 -97l-23 -24l-40 -43q-14 -16 -23 -23t-13 -9
q-5 0 -6 9q0 11 91 101q80 80 183 131q50 26 95 38t87 13q60 0 99 -39q20 -18 28 -42.5t10 -56.5q0 -28 -5 -56.5t-16 -58.5q-10 -30 -29.5 -71.5t-50.5 -96.5l99.5 101.5l99.5 103.5q141 136 233 138q30 0 49 -20q20 -20 20 -54z" />
    <glyph glyph-name="afii10034" unicode="&#x420;" horiz-adv-x="829" 
d="M1283 945q0 -94 -159 -224q-110 -92 -292 -157q-176 -65 -324 -65h-72t-50 2l-91 -131l-115 -155q-36 -47 -77 -90.5t-90 -87.5q-89 -78 -114 -78q-20 0 -22 26q0 8 10 25q8 13 21 15q9 0 15 -5q3 -3 13 -5q32 0 216 223q88 107 138 173t65 95q-111 19 -184 49
q-19 8 -21 28q0 16 30 16q18 0 84 -20q78 -21 116 -29q64 92 135.5 171t152.5 149q232 201 432 201q86 0 133 -34q25 -17 36.5 -39.5t13.5 -52.5zM1233 912q3 48 -45 82q-47 31 -121 34q-300 0 -657 -486h121q127 0 292 54q169 54 281 134q124 90 129 182z" />
    <glyph glyph-name="afii10035" unicode="&#x421;" horiz-adv-x="837" 
d="M907 732q0 -112 -135 -220q-128 -104 -242 -104q-13 0 -30 7q-21 9 -22 24q0 17 16 33q8 8 16 11t16 4q5 -16 8.5 -26t5.5 -15q7 -6 23 -7q35 0 70 11t72 36q38 24 64.5 43.5t40.5 36.5q24 27 35.5 60t12.5 73q0 123 -153 123q-133 0 -284 -85q-75 -43 -137 -96.5
t-112 -119.5q-107 -146 -108 -295q0 -113 71 -179q71 -61 197 -64q35 0 75.5 8.5t88.5 27.5q23 8 49 19.5l57 25.5q43 24 50 26q6 0 6 -8q0 -18 -92 -63q-81 -38 -149.5 -56.5t-125.5 -20.5q-120 0 -197 68q-74 68 -74 182q0 157 119 318q56 75 125.5 137t155.5 112
q166 101 318 101q73 0 121 -36q46 -34 48 -92z" />
    <glyph glyph-name="afii10036" unicode="&#x422;" horiz-adv-x="1399" 
d="M1392 659q0 -20 -77 -257q-78 -233 -78 -312v-12t2 -15v-13.5t2 -14.5q0 -5 -12 -11q-6 -2 -10.5 -2h-8.5q-13 2 -19.5 16.5t-6.5 46.5q0 41 9.5 90.5t30.5 110.5l35.5 97l38.5 100q39 105 40 157q0 37 -54 38q-68 0 -191 -114l-168.5 -163l-169.5 -165
q-5 -5 -33.5 -37.5l-79.5 -94.5q-90 -106 -103 -109q-8 0 -10 2v8q0 9 1 12q0 13 113 154l97.5 123.5t42.5 57.5q102 161 103 206q0 14 -11 28q-10 13 -23 13q-71 0 -252 -153q-82 -71 -155 -144t-137 -151q-137 -164 -157 -167q-1 0 -4 8q0 15 42 68l42.5 51l43.5 51
q53 66 98 129t84 128q47 78 69 134.5t24 94.5q0 49 -41 84q-38 32 -97 35q-90 0 -177 -51q-59 -37 -122 -100l-34.5 -38l-35.5 -38l-11 7l44.5 52l44.5 52q68 73 132 109q86 52 185 52q70 0 118 -37q46 -34 46 -97q0 -68 -18 -116q-11 -31 -36 -76t-65 -106
q88 80 154.5 133.5t113.5 82.5q69 42 128 44q14 0 26 -4t21 -13q10 -8 14 -19.5t5 -26.5q0 -52 -120 -239l200 192t114 105q60 48 108.5 70.5t89.5 24.5q53 0 55 -71z" />
    <glyph glyph-name="afii10037" unicode="&#x423;" horiz-adv-x="1279" 
d="M1450 572q0 -8 -18 -26l-11.5 -10t-11.5 -12q-198 -238 -362.5 -456t-301.5 -420q-88 -134 -89 -164q0 -9 12 -17q12 -9 12 -13q0 -24 -19 -24q-10 0 -26 19t-18 32q0 43 54 126l74 109l43 62l170 219.5l171 220.5q-235 -184 -236 -184q-95 -69 -148 -69q-64 0 -106 95
q-17 35 -30 88.5t-24 125.5l-16 115l-16 115q-9 79 -65 141q-60 66 -139 69q-100 0 -233 -60l3 19q18 13 43.5 26t60.5 27q84 31 142 33q66 0 139 -62q75 -68 99 -169l31.5 -180l32.5 -180q17 -81 44 -120.5t65 -41.5q54 0 207 123q72 59 138 121.5t130 131.5q5 5 35 39
l86 99q57 67 67 67t11 -15z" />
    <glyph glyph-name="afii10038" unicode="&#x424;" horiz-adv-x="943" 
d="M754 807q93 12 155.5 1t101 -41t55 -76t16.5 -103q0 -62 -29.5 -132t-82.5 -139t-126.5 -132.5t-161.5 -113.5q-45 -25 -95 -45.5t-103 -34t-107.5 -19t-108.5 0.5q-13 -22 -24 -46.5t-17 -40.5q-3 -8 -2 -29t4 -35q-13 -33 -37 -43q-8 -4 -13 7q2 -4 -2 1t-6 21
q-1 17 5.5 38.5t16 44t21 44.5t20.5 42q-57 7 -96.5 35t-63 69.5t-31 94t-0.5 108.5t29 112t58 106q38 54 88.5 98t107 77.5t115.5 56t115 32.5v-13q-30 0 -77 -17t-98.5 -47t-103 -71t-90.5 -89q-38 -46 -63 -98.5t-35.5 -105t-6 -102t25 -90t58 -69t92.5 -38.5l38 76.5
l45 86.5l57.5 103l76 125l100 154l129.5 190q-50 -12 -87.5 -22t-71 -23t-67 -32.5t-76.5 -52.5l-6 11q35 30 77.5 55t82 44t71 31.5t46.5 17.5q11 4 27.5 8t34.5 6l28 39l26 36q2 0 -3 16q-5 8 10 16q19 11 27 15t11 2q-4 -13 -9.5 -25t-12.5 -23q-15 -17 -28.5 -35z
M292 20q8 -1 17 -2t19 -1q35 0 80.5 5.5t94 16t95.5 26.5t85 37q76 42 139.5 96t109.5 114.5t71.5 125t25.5 127.5q0 60 -22.5 102t-63 66.5t-96 32t-121.5 -0.5q-134 -205 -245.5 -393.5t-188.5 -351.5z" />
    <glyph glyph-name="afii10039" unicode="&#x425;" horiz-adv-x="1028" 
d="M1074 768q-40 -24 -70 -47t-51 -44l-39.5 -42l-40.5 -42l-180 -181q12 -45 23 -90.5l22 -93.5q14 -50 29 -94.5t34 -83.5q6 -14 30 -25q22 -10 49 -7v-4q-13 -8 -25 -11t-23 -5q-45 0 -76 40q-13 16 -23.5 42t-21.5 64l-59 224l-69.5 -69.5l-94.5 -93.5l-135 -131.5
t-66 -61.5q-123 -111 -179 -111q-18 0 -21 15q0 11 9 19q8 11 17 11q1 0 13 -5q5 -2 10.5 -2h12.5q77 27 332 291q29 26 69 67.5l93 99.5q-33 144 -82 218q-35 54 -81.5 79.5t-106.5 26.5q-116 0 -248 -113l-6 5q85 82 149 114q31 17 67.5 24.5t78.5 7.5q192 0 273 -322
l168 171l46.5 46.5l46.5 48.5q47 42 117 76l9 -11v0z" />
    <glyph glyph-name="afii10040" unicode="&#x426;" 
d="M927 -15q-11 5 -11 18q0 36 97 187l81.5 128t30.5 48l-123.5 -118.5l-124.5 -118.5q-79 -73 -138.5 -108.5t-101.5 -36.5q-15 0 -28 4t-22.5 14.5t-15.5 28.5t-7 45q-1 37 66 236q33 98 49 167.5t17 111.5q0 111 -67 169.5t-198 58.5q-49 0 -94.5 -18t-82 -40.5
t-59.5 -41.5t-27 -21q-16 0 -19 8q0 2 12.5 14t34.5 29t53 35.5t68 35t78 27.5t85 13q61 2 111 -15t86 -49.5t55.5 -79t19.5 -102.5q0 -60 -67 -279q-33 -109 -50 -170.5t-17 -76.5q0 -32 16 -47.5t36 -15.5q67 0 325 248q227 217 277 287l47.5 69.5t25.5 33.5q22 30 35 31
q4 0 8 -6.5t1 -11.5q-4 -7 -17.5 -27.5l-39 -57l-64 -91.5l-91.5 -130q-107 -150 -159.5 -234t-54.5 -104q0 -22 16 -22q1 0 17 5l35 11.5l36 12.5t19 7q-2 -7 -10.5 -31.5t-23.5 -58.5t-36 -73t-46 -75q-39 -51 -68.5 -83.5t-52.5 -52.5q-20 -17 -35 -22.5t-21 -3.5
q-2 2 -4 5t0 8q-4 9 4 20q5 3 12.5 8.5l17.5 12.5q28 21 55 43.5t52 54.5l27.5 36.5t33.5 50.5t32.5 61t24.5 69q-9 -6 -28 -12t-39 -11t-36 -7.5t-18 0.5z" />
    <glyph glyph-name="afii10041" unicode="&#x427;" horiz-adv-x="1187" 
d="M746 330q5 -4 16 -9t38 1t73.5 28.5t121.5 72.5q21 15 54.5 36.5l70.5 46.5l75 50.5l70 47.5l53.5 37.5t25.5 21.5q22 30 35 30q4 0 9 -6t0 -12q-9 -12 -23.5 -33.5l-38.5 -56.5l-60.5 -88l-89.5 -128q-107 -149 -159.5 -233t-54.5 -104q0 -23 16 -23q2 0 8.5 1t14.5 4
q-29 -36 -57 -38q-8 0 -18.5 6t-10.5 20q0 38 97 187q13 21 32.5 49.5l41.5 61.5l45.5 68l46.5 68l113 164q-28 -22 -67 -49.5l-81 -56.5l-82.5 -57l-70.5 -49q-88 -62 -144.5 -90.5t-97.5 -28.5q-30 0 -52 21.5t-21 69.5q0 10 3.5 39.5t7 65t6.5 70.5t3 56q0 115 -67 171.5
t-197 56.5q-39 0 -84 -18.5t-83.5 -41t-65.5 -41.5t-31 -21q-16 0 -19 8q0 3 14 15t38.5 28.5t57 35t69 35t75.5 27.5t77 13q61 3 111 -11.5t86 -46t55.5 -79t19.5 -109.5q0 -33 -5.5 -78t-9.5 -87t-3.5 -75t13.5 -43z" />
    <glyph glyph-name="afii10042" unicode="&#x428;" horiz-adv-x="1704" 
d="M1062 89q-1 -20 3.5 -32.5t12 -19.5t17 -9t19.5 -2q33 0 114 56t211 179q225 216 277 288l48 69.5t25 34.5q24 30 35 30q4 0 8.5 -6t1.5 -11q-8 -14 -65 -99l-164 -236l-88.5 -127t-57 -87t-31 -54.5t-9.5 -29.5q0 -23 15 -23q3 0 8.5 1t13.5 4q-14 -19 -27.5 -27.5
t-27.5 -10.5q-11 -2 -20 5t-9 20q0 9 1.5 20t8 27.5t20 41t37.5 62.5q27 42 54 79.5l48 66.5l34.5 47t14.5 21q-61 -60 -133 -123l-135 -123q-79 -73 -139.5 -104.5t-102.5 -32.5q-14 0 -28 5t-24.5 16.5t-15 30t-0.5 45.5q1 10 13 36.5t31.5 66l46 91.5l57.5 114l-67 -62
l-73.5 -67l-74 -67.5l-67.5 -63.5q-158 -143 -241 -145q-15 0 -28.5 4t-24 14t-16 28t-4.5 46q1 20 17 78t49 158q65 195 66 280q0 110 -66.5 168.5t-197.5 58.5q-42 0 -87.5 -18t-83.5 -40.5t-63.5 -41.5t-29.5 -21q-16 0 -18 8q0 3 13.5 15.5t37 29.5t55.5 36t68.5 35
t76 27t79.5 11q61 1 111.5 -16.5t86.5 -49.5t55.5 -78t19.5 -102q0 -29 -16.5 -99t-51.5 -180q-33 -109 -50 -170.5t-17 -75.5q0 -19 4.5 -31t12 -19t16.5 -10t19 -3q66 0 326 246q114 109 182.5 180.5t93.5 107.5q61 88 74 104q23 29 34 29q4 0 8 -6t2 -11l-39 -55.5
l-55 -83l-61.5 -100t-57.5 -106.5l-40 -79.5l-36.5 -74l-27.5 -57.5t-11 -31z" />
    <glyph glyph-name="afii10043" unicode="&#x429;" horiz-adv-x="1704" 
d="M1541 47q-2 -7 -11 -32t-24 -58.5t-35.5 -72.5t-46.5 -74q-38 -52 -68 -84.5t-52 -51.5q-20 -17 -33.5 -25.5t-22.5 -0.5q-15 13 0 31q5 5 13 10t17 13q28 20 55 42.5t52 54.5l27.5 36t33.5 50.5t32.5 61.5t24.5 69q-13 -7 -27.5 -13.5t-29 -12t-26.5 -9t-19 -4.5
q-11 -2 -20 5t-9 20q0 9 1.5 19.5t8 27t20 41.5t37.5 63q27 42 54 79.5l48 66.5l34.5 47t14.5 20q-61 -60 -133 -122.5l-135 -122.5q-79 -74 -139.5 -105t-102.5 -32q-14 0 -28 5t-24.5 16.5t-15 30t-0.5 45.5q1 10 13 36l31.5 66l46 92l57.5 114l-67 -63l-73.5 -66.5
l-74 -67l-67.5 -63.5q-80 -73 -140 -108.5t-101 -36.5q-15 0 -28.5 4t-24 14t-16 28t-4.5 46q1 20 17 77.5t49 157.5q65 197 66 280q0 111 -66.5 169.5t-197.5 58.5q-42 0 -87.5 -18t-83.5 -40.5t-63.5 -41.5t-29.5 -21q-17 0 -18 8q0 2 13.5 14.5t37 29.5t55.5 36.5
t68.5 35.5t76 27t79.5 11q61 0 111.5 -17t86.5 -49.5t55.5 -78t19.5 -101.5q0 -30 -16.5 -99.5t-51.5 -179.5q-33 -109 -50 -170.5t-17 -76.5q0 -37 16 -50t36 -13q34 0 114.5 61.5t211.5 185.5q115 109 183 180.5t93 107.5l48 69t26 34q24 30 34 30q4 0 8 -6t2 -11
l-39 -55.5l-55 -83.5l-61.5 -100.5t-57.5 -106.5l-40 -79l-36.5 -73.5t-27.5 -58t-11 -31.5q-1 -20 3.5 -32.5t12 -19.5t17 -9t19.5 -2q33 0 114 56t211 180q114 109 182.5 180.5t94.5 107.5q60 88 73 103q24 30 35 30q4 0 8.5 -6t1.5 -11q-8 -14 -65 -98.5l-164 -236.5
l-88.5 -127t-57 -86.5t-31 -54t-9.5 -28.5q0 -11 3.5 -18.5t11.5 -5.5q23 5 47.5 15t59.5 22z" />
    <glyph glyph-name="afii10044" unicode="&#x42a;" horiz-adv-x="916" 
d="M427 411l-100 -129.5t-84 -131.5q-19 -35 -18.5 -65.5t9.5 -49.5q16 -31 53.5 -51t85.5 -20q82 0 157 20.5t134 55t97.5 79t49.5 91.5q11 56 -0.5 106t-45.5 82q-24 24 -56.5 37t-74.5 10q-43 -2 -73.5 -22.5t-44.5 -50.5t-9.5 -63.5t31.5 -61.5q11 -12 34.5 -22.5
t51.5 -15.5t57 -1.5t52 19.5q-1 -4 0 -7q2 -7 9 -5q-14 -12 -40 -18.5t-56 -7.5t-61.5 6t-57 23t-41.5 42t-16 64q0 51 24 84.5t62 50.5t83.5 17t89.5 -18q27 -11 50.5 -32t40 -49.5t23 -63.5t0.5 -73q-12 -73 -59 -129.5t-116 -95t-152.5 -59t-168.5 -20.5q-46 0 -78.5 9
t-54.5 23t-34 32t-17 35q-7 23 -5.5 43.5t8.5 40t18 39t24 39.5q23 36 45.5 65l46.5 57.5l52.5 60.5l63.5 74q30 35 52 58.5l40.5 44t36 43t37.5 55.5q30 51 29.5 89.5t-20 63.5t-51 37.5t-62.5 12.5q-40 0 -92 -21.5t-108.5 -56.5t-113 -79.5t-104.5 -90.5q-2 -2 -3 0.5
t-2 7.5l48.5 47.5t65.5 60t77.5 62.5t85.5 56t89.5 40.5t88.5 16.5q43 0 76 -15.5t50.5 -45.5t15.5 -75t-27 -104q-9 -22 -28 -47t-45 -55l-57.5 -66.5z" />
    <glyph glyph-name="afii10045" unicode="&#x42b;" horiz-adv-x="1190" 
d="M775 236q3 9 2 29.5t-6.5 44.5t-16 48t-27.5 40q-21 20 -50 34t-60.5 17.5t-62.5 -6.5t-55 -37q-16 -17 -23.5 -38t-7.5 -42.5t8 -42t24 -36.5q17 -18 44 -29t62.5 -14t78 4.5t90.5 27.5zM816 255q69 35 129.5 79t108.5 87t81.5 80t48.5 59l48 69.5t26 33.5q24 30 34 30
q9 0 10 -2v-15q0 -5 -212 -307q-211 -295 -213 -336q0 -23 15 -23q2 0 8.5 1t13.5 4q-14 -20 -25.5 -27.5t-29.5 -10.5q-10 -3 -20 4.5t-10 20.5q0 19 23.5 65t72.5 122l82 129t31 49q-15 -8 -38.5 -23l-53 -33l-62.5 -37.5t-67 -37.5q-5 -24 -19 -54t-39 -61t-62.5 -61
t-88.5 -55q-78 -39 -149.5 -54t-149.5 -16q-46 0 -78.5 8.5t-54.5 22t-34.5 31.5t-16.5 37q-5 24 -3.5 44.5t8 40t17 38.5t23.5 39q23 37 47.5 67.5l50 60l53 61t57.5 69.5l53 68.5l47.5 62.5l44 60l44.5 62q16 22 23 38t12.5 30t13 28t25.5 31q8 3 17 6q7 2 15 3.5t14 -0.5
q12 -3 10 -19.5t-12 -36.5t-23.5 -40t-23.5 -30q-20 -21 -48.5 -54.5l-61.5 -74l-69 -86l-70 -91.5l-53 -69.5l-48 -63.5t-43.5 -62t-39.5 -66q-19 -36 -18.5 -69.5t18 -60t50.5 -42t80 -15.5q46 0 76.5 2.5t56.5 9t54 18.5l69 31q35 16 66 39.5t55 49t40 51t21 46.5
q-12 -8 -30.5 -15.5t-39 -13t-39 -9t-29.5 -3.5q-21 0 -55.5 3t-67.5 17.5t-56.5 46t-23.5 88.5q0 32 11.5 52.5t31.5 43.5q42 47 99.5 54.5t116.5 -16.5q36 -14 61.5 -40.5t41 -56.5t21 -59t1.5 -47z" />
    <glyph glyph-name="afii10046" unicode="&#x42c;" horiz-adv-x="868" 
d="M405 324q0 32 11.5 52.5t31.5 43.5q43 48 100 55t116 -17q27 -11 51 -32.5t40 -50t22.5 -63.5t0.5 -72q-8 -49 -34 -90.5t-64.5 -75.5t-86.5 -59.5t-100.5 -43t-107 -27t-104.5 -9.5q-45 0 -78 9t-55.5 23t-34.5 32t-15 35q-7 48 6.5 84.5t39.5 77.5q23 37 47.5 67.5
l50 60l52.5 61l57 69.5l52.5 68.5l47.5 62.5l45 60l45 62q16 22 23 38t12 30t12.5 28t25.5 31q9 3 17 6q7 2 14.5 3.5t13.5 -0.5q12 -3 10.5 -19.5t-11 -36.5t-23 -40t-23.5 -30q-20 -21 -49 -54.5l-62 -74l-69 -86l-71 -91.5l-52 -69.5l-47.5 -63.5l-43.5 -62t-40 -66
q-19 -36 -18.5 -69.5t18 -60t50.5 -42t79 -15.5q91 0 168.5 26t135.5 63.5t93.5 80.5t41.5 77q11 56 0 106t-45 82q-25 23 -57.5 36t-74.5 11q-29 -2 -52 -10t-43 -31q-15 -17 -23 -37.5t-8.5 -41.5t7.5 -41.5t24 -36.5q11 -12 34.5 -22.5t51.5 -15.5t56.5 -1.5t51.5 19.5
q0 -4 1 -7q2 -7 8 -6q-14 -11 -40 -18t-56 -7.5t-61.5 6.5t-57 23t-41.5 42t-16 64z" />
    <glyph glyph-name="afii10047" unicode="&#x42d;" horiz-adv-x="911" 
d="M926 344q-54 -72 -133 -145t-176 -127q-73 -40 -147 -62.5t-141.5 -27t-125.5 10t-100 47.5q-38 30 -53.5 74.5t-16.5 96.5q1 3 5 7.5t9.5 9l10 8.5t7.5 4q4 -16 11 -36.5t17.5 -41.5t24 -41.5t30.5 -37.5q38 -36 90.5 -52t114 -13t129 24t136.5 59q87 48 158 113
t116 136q-12 2 -25.5 5.5t-31 6t-40.5 2.5t-55 -4q-51 -7 -95 -12t-77 -5q-13 0 -25.5 5.5t-22.5 12.5t-16 14.5t-7 11.5q0 3 8 3q3 0 10 -0.5t15.5 -1.5l17.5 -2t16 -1q10 0 30.5 1.5t45 3.5t49.5 4.5l45 4.5q35 2 67 0t56 -6q28 -4 52 -12q27 48 40 92.5t14 91.5
q2 104 -55.5 155t-167.5 43q-45 -3 -97.5 -23.5t-107.5 -54t-109 -79t-102 -99.5q-4 -5 -11 -4.5t-9 3.5q56 77 123 131.5t131.5 90t120 53.5t88.5 22q53 6 98.5 -3t79 -35.5t52.5 -70.5t19 -107q0 -52 -17.5 -106t-55.5 -111q6 -2 10.5 -4t9.5 -4q26 -14 26 -25
q0 -5 -7.5 -4t-18.5 4q-5 2 -15.5 4.5t-21.5 2.5z" />
    <glyph glyph-name="afii10048" unicode="&#x42e;" horiz-adv-x="1420" 
d="M-26 20q20 -10 36.5 -8.5t33 12t33.5 27.5l38 38q17 17 41 47.5l51.5 68l56.5 78l58 78.5q-15 0 -46.5 -1.5t-66 -4.5t-66 -8.5t-46.5 -13.5q-48 -25 -87.5 -54.5t-59.5 -81.5q-13 -33 -14 -63t4.5 -54t15 -39.5t18.5 -20.5zM-58 219q15 29 32 55.5t39.5 48.5t52 38
t70.5 25q28 6 56 9t55 4.5l54.5 3t56.5 5.5q21 31 48 78.5t52.5 104t46.5 117t30 116.5l22 -16q-2 -23 -13 -64t-32 -94t-53 -114t-77 -125q31 3 54.5 5.5t41 4t31 2t24.5 1.5q18 32 43.5 68t57.5 72t71.5 69.5t86.5 60.5q59 34 114 52.5t100 20.5v-13q-9 1 -25 -1t-38 -7
t-47 -15t-52 -26q-44 -25 -81.5 -53t-71 -61.5t-64 -74t-59.5 -90.5q-1 -1 5 -1.5t16 -0.5t21 0.5t20 1.5q-7 -16 -19.5 -23.5t-25.5 -11t-23 -5t-11 -5.5q-13 -39 -17.5 -80.5t1 -80.5t21 -74t42.5 -62q38 -36 90.5 -52t114 -13t129.5 24t136 59q75 42 138.5 96t109.5 115
t72 125.5t26 127.5q0 47 -17 83.5t-47 62t-71 39t-89 13.5q-44 0 -96 -18.5t-112 -53.5q-63 -38 -115 -83.5t-93 -100.5q-7 -5 -19 -2q70 96 146.5 155t143 90.5t113.5 42t59 10.5q60 0 106.5 -10.5t78 -35.5t48 -66.5t16.5 -103.5q0 -65 -29.5 -135t-82 -138t-126 -131
t-161.5 -112q-73 -41 -147 -66t-142 -31t-126.5 9.5t-98.5 56.5q-29 29 -44.5 63.5t-20.5 69t-3 68t8 62t12.5 49t10.5 30.5l-169 -17l-43.5 -60.5l-48 -68l-47 -66.5t-40.5 -55l-53 -69t-45.5 -50t-42 -29.5t-42.5 -7.5q-32 1 -51 25.5t-25 62t2 82.5t31 89z" />
    <glyph glyph-name="afii10049" unicode="&#x42f;" horiz-adv-x="1436" 
d="M1413 97q-42 -31 -80 -54t-75.5 -38.5t-77 -23t-85.5 -7.5q-61 0 -106.5 16t-76.5 45t-46.5 69.5t-15.5 90.5q0 63 40.5 152t107.5 194q-10 -5 -21 -14l-21 -17l-23 -20q-34 -28 -80 -74.5l-100 -100t-114 -107t-121 -95.5q-84 -58 -164 -91.5t-155 -38.5q-60 -5 -98 3.5
t-59.5 25.5t-29 40.5t-6.5 48.5q2 43 15 75.5t33.5 58.5t46 47.5l52.5 43.5l25 -1q-12 -10 -29 -27.5t-32 -41t-26 -52t-12 -60.5q0 -123 153 -123q22 0 51 8.5t62 22.5t68 33l70 39q42 25 87 58.5t88.5 71.5l84.5 76.5t74 73l56.5 61t33.5 40.5l-45.5 -26t-54 -23.5
t-63.5 -12.5t-73 8q-32 8 -57 28.5t-38.5 51t-14.5 71t16 89.5q16 51 50.5 92t75 71t82 48.5t73.5 23.5q76 13 122 -5.5t73 -61.5q11 -18 14.5 -40t2 -45.5t-8 -47t-14.5 -45.5q-19 -51 -52 -104q13 10 25 21l23 19t23 18q18 15 38.5 30l40.5 29.5l38 28.5t31 27
q13 0 15 -11q-331 -296 -331 -522q0 -45 16 -82t45.5 -64t72 -42.5t96.5 -16.5q48 0 80.5 4.5t61 15t58 27.5l71.5 41l14 -3v0zM1037 772q0 25 -10.5 51t-30 45.5t-46.5 30t-59 6.5q-23 -3 -50.5 -9t-57 -20t-59.5 -40t-56 -68q-18 -28 -29.5 -60t-15.5 -62.5t1 -58
t21 -46.5q55 -65 132 -62.5t162 72.5q49 52 73.5 110.5t24.5 110.5z" />
    <glyph glyph-name="afii10065" unicode="&#x430;" horiz-adv-x="435" 
d="M416 85q2 -8 -4 -11q-69 -43 -132.5 -73.5t-110.5 -30.5q-54 0 -57 81l-27.5 -15.5l-39 -21.5t-41 -19.5t-33.5 -9.5q-19 -2 -34.5 5t-19.5 29q0 44 82 108q42 31 80 47t64 16q37 1 38 -18q0 -18 -13 -29q-10 -9 -25 -9q-1 1 -2 4q-1 2 -2 4.5t-3 6.5q-6 15 -24 16
q-39 0 -91 -44q-50 -42 -50 -76q0 -8 3 -14.5t11 -7.5q28 -2 55.5 9t58.5 32q13 9 45 44q20 24 35 23q12 0 12 -10q0 -9 -17 -39q-16 -28 -16 -41q0 -37 36 -38q32 0 65 10t62 24t51.5 27.5t32.5 20.5q3 3 6 4.5t5 -4.5z" />
    <glyph glyph-name="afii10066" unicode="&#x431;" horiz-adv-x="278" 
d="M124 321q-12 18 -22 35.5t-17 35.5t-8.5 36t4.5 36q6 20 20.5 38.5t33.5 35t41.5 30t44.5 23.5q18 8 31 13t23.5 8t21.5 5t26 4q8 1 19 2t21.5 0t17.5 -3.5t6 -8.5q0 -6 -17 -10.5l-44.5 -11.5t-62.5 -19t-72 -34q-79 -46 -83 -105q-1 -20 6 -40t17.5 -39.5t22 -36
l19.5 -28.5q16 -23 26.5 -47t9.5 -52t-16.5 -60.5t-51.5 -72.5q-45 -49 -86 -70t-82 -22q-28 0 -40 23.5t-4 51.5q8 33 26 59t44 53q14 14 26.5 23t27.5 23q11 11 26.5 22t32.5 17q6 1 11 0q4 -1 7.5 -3.5t3.5 -7.5t-1.5 -7.5t-3.5 -4.5q-2 -3 -4 -4q-7 -6 -24 -9.5
t-32 -11.5q-48 -35 -68.5 -73t-23.5 -66q-3 -20 10.5 -32.5t34.5 -12.5q28 0 54.5 17t57.5 59q11 15 19.5 34t13.5 37t7.5 33.5t2.5 23.5q-1 24 -16 52.5t-37 61.5z" />
    <glyph glyph-name="afii10067" unicode="&#x432;" horiz-adv-x="384" 
d="M614 659q0 -43 -94 -152q-171 -200 -345 -301q-30 -20 -67 -39t-86 -41l-23 -28q-9 -12 -17 -27.5t-10 -29.5q-2 -18 5.5 -28t22 -11.5t34 6.5t42.5 27q13 9 36.5 29t37.5 48q6 12 10.5 24t10 21.5t12 15.5t16.5 6q14 0 17 -15t-14 -32q-10 -10 -17 -13.5t-11 -9.5
q-4 -5 -4.5 -13.5t-0.5 -22.5q0 -7 2.5 -15.5t7.5 -15.5t14 -11.5t23 -2.5q14 1 50 14t87 55l7 -14q-12 -9 -35.5 -24t-43.5 -26q-35 -19 -59 -25t-41 -1q-23 6 -28 27.5t-2 47.5q-6 -10 -20 -25t-31 -30t-35.5 -28.5t-33.5 -19.5q-23 -10 -42.5 -14t-37.5 7q-6 4 -12 10
t-8 16.5t2 26t17 37.5q27 46 66.5 100.5t85.5 112l95.5 115.5l96.5 111q93 105 158 153.5t99 53.5q38 5 50.5 -10t12.5 -39zM569 648q0 29 -33 29q-41 0 -123 -74q-47 -49 -151 -169l-89 -105.5l-56 -67.5q-17 -20 -30.5 -39l-24.5 -34l-22 -33q23 4 69 29.5t112 74.5
q67 49 124.5 99t108.5 103q114 123 115 187z" />
    <glyph glyph-name="afii10068" unicode="&#x433;" horiz-adv-x="367" 
d="M336 91q3 2 6.5 2.5t5.5 -4.5q2 -7 -5 -10q-27 -17 -64 -37.5t-75.5 -37.5t-74.5 -28t-60 -10q-10 0 -20.5 3t-19 10t-14 17.5t-4.5 26.5q1 9 10 22t30 30l36 28.5l37 28.5q11 8 9 14t-7 7q-3 1 -10 0t-15 -4t-16 -6.5t-12 -5.5q-8 -4 -19.5 -10.5t-23.5 -14l-23.5 -15
t-20.5 -12.5q-3 -1 -5 5q-1 3 -1 5l47 30t51.5 29.5t46.5 22.5t32 10q20 2 24.5 -7.5t2.5 -20.5q-3 -14 -19.5 -30.5t-49.5 -37.5q-26 -17 -43.5 -32.5t-19.5 -23.5q-5 -22 5 -31.5t29 -12.5q23 -4 53.5 5t64.5 24t68 34.5z" />
    <glyph glyph-name="afii10069" unicode="&#x434;" horiz-adv-x="420" 
d="M102 -47l-94.5 -26t-94.5 -28q-81 -23 -144.5 -47t-108.5 -48q-128 -65 -128 -136q0 -28 25.5 -41t66.5 -10t91.5 22t101.5 55q206 149 285 259zM386 93q4 2 7 3t5 -4q1 -4 0.5 -6t-5.5 -5q-58 -35 -121 -62l-116 -51q-72 -92 -232 -215q-222 -168 -352 -170
q-32 0 -55 16.5t-23 45.5q0 120 260 219q55 22 200 66l112.5 33.5t52.5 17.5q70 78 72 150q0 48 -56 48q-21 0 -41 -5t-40 -16q-40 -24 -40 -53q0 -40 32 -41q20 0 51.5 12.5t67.5 35.5l-7 -15q-33 -23 -70 -41.5t-72 -18.5q-21 0 -37.5 10.5t-14.5 42.5q2 17 16.5 35.5
t45.5 38.5q62 36 117 37q38 0 62.5 -18.5t26.5 -55.5q0 -47 -50 -123q16 5 46 17l61.5 25.5t58.5 26.5t38 20z" />
    <glyph glyph-name="afii10070" unicode="&#x435;" horiz-adv-x="254" 
d="M226 87q1 -7 -3 -11q-83 -54 -144 -79.5t-117 -26.5q-69 0 -70 71q0 44 51 103q53 56 92 57q9 0 20 -4.5t13 -25.5q0 -9 -5 -18t-13.5 -18.5t-19 -19t-20.5 -17.5q-15 -14 -33 -26.5t-41 -24.5q-2 -13 3 -18.5t16 -13.5q17 -11 37 -11q33 0 90.5 17.5t133.5 68.5
q3 3 6.5 2.5t3.5 -5.5zM24 160q0 5 -13 8q-17 0 -45 -31q-14 -14 -21 -30t-7 -27q2 0 13 3.5t18 8.5q26 15 39.5 34.5t15.5 33.5z" />
    <glyph glyph-name="afii10072" unicode="&#x436;" horiz-adv-x="633" 
d="M-43 67q-10 -6 -14 0q-2 3 0.5 4.5t10.5 8.5q24 14 50 31l50 32t45 25t34 11q48 0 48 -45q0 -29 -30 -71q10 6 23.5 17.5t27.5 26t27 32t24 36.5q7 11 9 22.5t10 18.5q5 5 11 5h13q13 0 15.5 -6.5t-1.5 -17.5t-13 -24.5t-19.5 -27l-19.5 -26t-14 -20.5l-21 -37.5
t-18 -35.5q13 10 25 21q11 9 23 20t21 22l11 12.5l10 11l11.5 13l16.5 18.5q51 55 91 57q11 0 21.5 -6t11.5 -20q0 -14 -8.5 -20.5t-19.5 -9.5q-20 -4 -34.5 -3t-28.5 -10q-16 -12 -32 -31.5t-15 -46.5q0 -28 24 -46q8 -5 26 -7.5t47 1.5q35 4 69 17.5t62.5 29t48 29
t25.5 18.5q8 4 11 -5q0 -3 -1.5 -6l-2.5 -5q-85 -59 -152.5 -84t-124.5 -26q-16 0 -30.5 5.5t-24 17.5t-11 31.5t7.5 48.5q-14 -10 -28 -23q-13 -11 -28 -26.5l-32 -34.5q-8 -10 -14.5 -20t-13.5 -22q-5 -8 -9 -18.5t-9 -19t-10 -12.5t-11 3q-10 11 -5 23t13 25l30.5 58.5
t39.5 80.5l-47 -32l-35.5 -24.5t-28 -20l-25.5 -18.5q-4 -3 -12.5 -7t-19.5 -7t-23 -5t-23 -1q-5 1 -12 7.5t2 17.5q9 10 22.5 7.5t24.5 -1.5q13 1 34 11.5t38 30.5q15 17 23.5 38t8.5 38q0 13 -7.5 18.5t-18.5 6.5q-6 1 -21.5 -3t-39.5 -18q-28 -17 -50.5 -34t-38.5 -24z
" />
    <glyph glyph-name="afii10073" unicode="&#x437;" horiz-adv-x="444" 
d="M409 88q0 -3 -1 -6t-4 -5q-36 -24 -67.5 -40.5t-60.5 -28t-56 -20.5l-55 -19q-69 -90 -232 -215q-222 -169 -352 -171q-33 0 -55 18q-23 17 -23 45q0 119 260 218q55 22 200 66q141 42 165 52q7 7 11.5 19t5 24t-4.5 23t-17 17q-8 -2 -18.5 -7t-20.5 -8.5t-17 -2.5t-8 12
q0 10 7 15t17.5 7.5t22.5 2.5t21 -1q13 4 29.5 10.5t32 15.5t28.5 19.5t19 22.5q16 29 3 48t-42 19q-11 0 -23.5 -5.5t-26.5 -14t-28.5 -19l-29.5 -20.5l-27.5 -19l-31 -22.5l-29.5 -22.5t-22 -18q-3 -3 -5 -4q-5 -2 -7 4q-3 5 1 9q2 2 4 3l57 46.5t66 49.5q37 25 72 44
t58 23q20 4 37 1.5t28 -15.5q9 -12 11 -25.5t-2 -27t-12.5 -26.5t-19.5 -23q-10 -9 -24.5 -17.5l-29.5 -16.5t-29.5 -15t-24.5 -13q13 -6 18 -14t6 -17.5t-1 -20.5t-4 -24q17 6 37 11t46.5 14.5t59.5 26t77 43.5q3 1 6 1q4 0 5 -6zM111 -47l-94.5 -26t-94.5 -28
q-81 -23 -144.5 -46.5t-108.5 -47.5q-126 -65 -128 -136q0 -26 28 -44q23 -15 53 -16q31 0 91 24q61 25 113 61q206 151 285 259z" />
    <glyph glyph-name="afii10074" unicode="&#x438;" horiz-adv-x="452" 
d="M416 85q4 2 7.5 4.5t5.5 -3.5q3 -7 -5 -13q-36 -27 -72.5 -48.5t-70 -36t-61.5 -21.5t-47 -6q-12 1 -24.5 6t-22 15t-15.5 26t-5 39q-12 -13 -29 -26t-36 -23t-37 -16t-32 -6q-16 0 -30 10.5t-14 33.5q-1 34 30 67q14 15 43 36.5t74 50.5q6 0 8 -4.5t-1 -10.5
q-13 -8 -26 -17t-27 -20q-25 -21 -36.5 -39.5t-13.5 -35.5q-3 -30 19 -35q18 -4 41.5 9.5t53.5 37.5q11 9 27.5 27t39.5 49q35 46 51 46q13 0 14 -11q0 -11 -38 -46q-36 -34 -36 -58q0 -34 11.5 -49t31.5 -22q28 -9 62.5 2t76.5 33l40 22t43 33z" />
    <glyph glyph-name="afii10075" unicode="&#x439;" horiz-adv-x="446" 
d="M405 343q0 -5 -5 -9q-11 -13 -32 -28t-45 -29t-47 -24.5t-39 -13.5q-10 -2 -24 -4t-28.5 0t-27 10.5t-20.5 28.5q-11 24 -7 48.5t21 44.5q6 7 14.5 10.5t16.5 3.5t13.5 -3t5.5 -10q0 -10 -4 -17.5l-8 -14.5t-7 -14t-2 -16q1 -8 5 -16.5t12.5 -15.5t20.5 -10t29 -1
q9 1 25 7t36 16.5t43 25.5t45 35h4q4 0 5 -4zM416 85q4 2 7.5 4.5t5.5 -3.5q3 -5 -5 -13q-36 -27 -72.5 -48.5t-70 -36t-61.5 -22t-47 -5.5q-12 1 -24.5 6.5t-22 15.5t-15.5 25.5t-5 38.5q-12 -13 -29 -26t-36 -23t-37 -16t-32 -6q-16 1 -30 11t-14 34q-1 33 30 66
q14 15 43 36.5t74 50.5q6 0 8 -4.5t-1 -10.5q-13 -8 -26 -17t-27 -20q-25 -20 -36.5 -39t-13.5 -36q-3 -31 19 -34q18 -5 41.5 8.5t53.5 37.5q21 17 67 76q17 23 30 34t21 12q13 0 14 -12q0 -10 -38 -45q-36 -36 -36 -58q0 -33 11.5 -48t31.5 -23q28 -10 62.5 1t76.5 34
l40 22t43 33z" />
    <glyph glyph-name="afii10076" unicode="&#x43a;" horiz-adv-x="509" 
d="M494 88q1 -5 -5 -11q-42 -34 -78.5 -52.5t-70.5 -27.5t-65 -11t-61 -2q-17 0 -44.5 5.5t-65.5 18.5t-58.5 18.5t-26.5 6.5q-39 0 -102 -43l-37.5 -27l-38.5 -27l-19 3q16 19 30.5 33.5t34 36l47 54.5l71.5 89q15 20 22.5 32.5t11 20.5t5 15t4.5 16q8 28 24 44.5t30 23.5
q11 5 22.5 1t10.5 -21q-9 -16 -26.5 -40t-39.5 -51l-44.5 -53.5l-41.5 -48.5l-31.5 -36t-13.5 -15l69 37l71 39q67 35 117.5 51.5t85.5 17.5q34 0 37 -26q0 -22 -21 -22q-12 0 -27.5 3l-26.5 5q-62 0 -126 -29l-35 -20t-25 -19q69 -28 119 -39t82 -16q12 -2 31 -4t47 2.5
t64 20t83 49.5q3 2 6.5 2.5t4.5 -4.5z" />
    <glyph glyph-name="afii10077" unicode="&#x43b;" horiz-adv-x="436" 
d="M409 83q0 -8 -4 -10q-41 -33 -76 -52.5t-64 -29.5t-52.5 -12t-39.5 0q-24 4 -38 21.5t-19 56.5q-27 -28 -76 -52q-20 -9 -34.5 -14.5t-23.5 -3.5q-45 6 -49 44q0 36 18 51q11 9 25.5 12.5t18.5 -6.5q4 -9 3.5 -19t-1.5 -19t1 -16.5t10 -10.5q7 -2 19.5 2t26 11.5t27 16.5
t22.5 17q11 8 27.5 27t39.5 49l19 23.5t19.5 22.5t17.5 17t12 7h7.5t8 -2.5t5 -8t-2.5 -16.5q-5 -14 -22 -25t-36 -29q-36 -34 -37 -58q0 -23 10.5 -38.5t30.5 -21.5q27 -8 53 -3.5t51.5 16t48.5 27.5l44 31q8 6 10 -5z" />
    <glyph glyph-name="afii10078" unicode="&#x43c;" horiz-adv-x="614" 
d="M356 -21q-25 4 -41.5 21.5t-14.5 57.5l-33 -22.5l-36 -24t-35 -18.5t-30 -6q-15 1 -22.5 10.5t-9.5 23t2 29t12 29.5l-53 -43.5t-43.5 -33t-41 -21.5t-44.5 -9q-17 -1 -35.5 13.5t-19.5 34.5q-2 24 6 38t17 22q12 9 26 12.5t20 -4.5q7 -9 6.5 -21.5t-2 -24.5t-1.5 -21
t9 -12q7 -3 17 -2.5t25 8.5q12 6 25.5 14.5t30.5 21.5t38.5 32t49.5 47q29 28 43 50t25 27q4 2 10 1.5t11 -3.5t8 -8t0 -12q-11 -13 -25 -19.5t-27 -17.5q-24 -20 -36 -46.5t-13 -43.5q0 -17 4 -24t14 -11q10 -3 21.5 0.5t24 11t25 17l23.5 18.5q11 8 27.5 34.5t40.5 56.5
q34 46 51 46q13 0 13 -11q0 -10 -37 -46q-18 -17 -27.5 -39t-9.5 -34q0 -27 11.5 -40.5t31.5 -19.5q26 -8 52.5 -3.5t51.5 16.5t48 27.5l44 30.5q4 2 6.5 2t4.5 -6q0 -7 -4 -11q-41 -33 -76 -52.5t-64.5 -29.5t-53 -12t-40.5 0z" />
    <glyph glyph-name="afii10079" unicode="&#x43d;" horiz-adv-x="464" 
d="M188 -15q-57 0 -57 60q0 11 4 26t9 23q-18 -11 -39 -18.5t-42 -13.5t-41.5 -11t-38.5 -11q-9 -11 -19.5 -22.5t-20 -20.5t-16.5 -15t-9 -6q-1 0 -7 3.5t-6 7.5q0 7 9 23t29 44q16 24 25 39t14 25l8.5 17.5t10.5 16.5q4 6 16 10t17 6q11 0 15.5 -6t1.5 -15
q-4 -11 -21 -30.5t-33 -51.5q15 5 35.5 11l42.5 13t43 14.5t37 15.5q19 24 39.5 39t32.5 15q5 0 8 -13l-31 -37q-29 -36 -30 -68q0 -36 50 -40q11 -1 31.5 2t48 11.5t59.5 22.5t65 36q2 0 5 0.5t5 -5.5q2 -3 0 -6t-4 -5q-76 -45 -136.5 -65.5t-109.5 -20.5z" />
    <glyph glyph-name="afii10080" unicode="&#x43e;" horiz-adv-x="359" 
d="M337 84q0 -4 -0.5 -6.5t-3.5 -5.5q-55 -42 -100 -56t-84 -16q-26 -1 -50 19q-29 -25 -59.5 -39.5t-65.5 -16.5q-22 -1 -36.5 9.5t-14.5 31.5q0 53 77 120q38 32 71 47t57 15q51 0 51 -48q0 -26 -14 -52t-46 -52q13 -13 33 -13q14 0 31 2t38 8.5t47 20t58 36.5q3 2 7 2
t4 -6zM164 146q0 9 -3.5 13t-14.5 5q-21 0 -37.5 -19.5t-18.5 -43.5q0 -37 14 -49q60 48 60 94zM89 36q-10 10 -14 24t-3.5 29t5 30.5t10.5 29.5q-18 -4 -38.5 -16t-38 -28t-29.5 -34.5t-15 -36.5q-2 -18 7 -27t24 -10q42 0 92 39z" />
    <glyph glyph-name="afii10081" unicode="&#x43f;" horiz-adv-x="486" 
d="M463 79q0 -2 -0.5 -5t-3.5 -5q-45 -23 -80 -39t-63.5 -26t-53.5 -14.5t-49 -4.5q-56 0 -57 60q0 11 2.5 27.5t8.5 39.5l-76.5 -45.5l-82.5 -51.5q-59 -39 -64 -39q-2 0 -7 4q-6 2 -6 7q0 7 8.5 23t28.5 44q10 15 17.5 24.5l12.5 15.5t8.5 9.5t5.5 6.5q2 8 -1.5 9t-8.5 6
q-3 4 3.5 9t13.5 12q8 7 23.5 15.5t23.5 10.5q14 2 17 -5t1 -20q0 -8 -33 -51q-14 -19 -24.5 -32t-18.5 -21q190 130 245 130q5 0 7 -13q0 -1 -30 -37q-29 -34 -30 -68q0 -36 50 -37q12 0 30 2t43 8.5t57.5 19.5t72.5 36q1 2 6 2q3 0 4 -7z" />
    <glyph glyph-name="afii10082" unicode="&#x440;" horiz-adv-x="334" 
d="M231 365q0 -1 -211 -242l38 20l39 21q48 21 87 22q42 0 45 -37q0 -24 -40 -67q-19 -20 -42 -36.5t-52 -33.5q-58 -30 -93 -31q-8 0 -13 3t-10 8q-9 9 -9 23q0 28 19 30q10 0 13 -6q3 -4 8 -14q7 -15 31 -15q31 0 88 48q58 45 58 80q0 16 -36 19q-34 0 -69 -22
q-14 -9 -41.5 -31l-68.5 -57q-52 -44 -107 -104.5t-115 -140.5q-102 -142 -111 -182v-36q0 -14 -10 -20q-8 -6 -19 -8q-6 0 -11.5 1t-10.5 5q-10 5 -13 17q0 18 13 32q11 20 17.5 29.5t7.5 11.5q32 59 93 140t152 187l127.5 146l215.5 237q13 13 22 14q5 0 8 -11z" />
    <glyph glyph-name="afii10083" unicode="&#x441;" horiz-adv-x="345" 
d="M312 87q7 7 11 -3q0 -9 -5 -11q-67 -46 -137.5 -80t-146.5 -35q-20 0 -37.5 5t-30.5 15t-20 25.5t-5 36.5q3 26 17 54.5t50 57.5q18 15 38 27t40.5 21t39.5 14t35 6q32 0 34 -30q0 -14 -11.5 -28t-28.5 -25.5t-37 -19.5t-36 -9q-11 0 -15.5 3t-6.5 8q-6 14 4.5 21.5
t25.5 7.5q2 0 10 -1.5t22 -3.5q6 -1 14.5 3t15 10t9.5 13.5t0 13.5q-5 7 -9 8.5t-17 1.5q-19 0 -45.5 -12t-53.5 -36q-51 -49 -51 -86q0 -34 22.5 -50.5t64.5 -16.5q31 0 75.5 13.5t87.5 34.5q14 7 23.5 13l17.5 11l16 10.5t20 12.5z" />
    <glyph glyph-name="afii10084" unicode="&#x442;" horiz-adv-x="693" 
d="M676 75q1 -3 -0.5 -6.5t-4.5 -3.5q-50 -26 -85 -42.5t-60.5 -26t-45 -14t-38.5 -4.5q-57 -2 -59 56q0 20 5 39t16 39q-7 0 -20.5 -7l-26.5 -14q-47 -21 -85.5 -47.5t-65.5 -42.5q-47 -26 -57 -26q-20 0 -20 18q0 16 27 52l33 39.5l34 40.5l-176 -108t-67 -37
q-16 0 -16 13q6 6 14 16l17.5 19.5l24.5 26.5q29 31 45 52.5t13 29.5q-1 4 -7 3.5t-8 -2.5q-3 -1 -9 -2.5l-12 -3t-11 -1t-6 4.5q-2 4 6 11t20 14.5t24.5 13t19.5 6.5q17 0 27.5 -7t4.5 -30q-2 -16 -20 -39l-38 -47l141 84q36 21 53 21q26 0 26 -19q0 -14 -32 -50
q-19 -21 -31 -36t-18 -26q147 89 187 108q53 26 78 27q7 0 7 -12q-3 -5 -7 -11q-4 -5 -8.5 -13t-11.5 -19q-26 -41 -26 -67q0 -39 37 -40q15 0 29.5 2.5t35.5 10.5t53 22.5l83 39.5q2 1 5.5 1t5.5 -6z" />
    <glyph glyph-name="afii10085" unicode="&#x443;" horiz-adv-x="363" 
d="M264 142q0 -9 -65 -76l-99.5 -100l-60.5 -62q-59 -61 -111 -122l-100 -122q-20 -27 -29.5 -46t-11.5 -29q0 -3 1 -6.5t2 -9.5t1 -10.5v-6.5q-12 -32 -47 -34q-2 12 -3 20.5l-2 16.5q0 48 56 108l333 368q-85 -55 -132 -55t-47 49q0 39 32 92q32 44 53 54q16 1 18 -10
q0 2 -35 -39q-33 -40 -36 -79q0 -31 53 -33q40 0 124 69q83 68 95 69q10 0 11 -6z" />
    <glyph glyph-name="afii10086" unicode="&#x444;" horiz-adv-x="469" 
d="M132 106q1 17 -2.5 26.5t-10.5 14.5t-15.5 6.5t-16.5 1.5q-17 0 -39 -11t-51 -36q-58 -48 -58 -82q0 -8 9 -12t24 -3.5t33.5 5.5t37.5 14l17.5 8.5t20 12.5t23.5 21t28 34zM160 130l95 105l117 128q7 6 12 9.5t10 3.5t8 -10q0 -1 -211 -242l38 20l39 21q49 21 87 21
q42 0 45 -36q0 -14 -10 -30t-30 -37q-37 -39 -94 -70q-58 -30 -93 -31q-13 0 -22.5 10t-9.5 24q0 28 19 30q9 0 12 -4.5t9 -15.5q7 -15 31 -15q29 0 88 47q23 18 41.5 41t16.5 40q-2 11 -11 16.5t-23.5 5t-33 -6.5t-37.5 -18q-14 -10 -41.5 -31.5t-68.5 -56.5
q-52 -45 -107 -105.5t-115 -140.5q-102 -141 -111 -182v-36q0 -23 -29 -28q-11 -2 -23 6t-12 17q0 16 12.5 35l25.5 39l96 138.5t150 188.5q7 8 19 19t21 21q-38 -17 -70 -28.5t-57 -12.5q-44 0 -45 37q0 25 38 67q20 19 43.5 36.5t53.5 33.5q28 15 50.5 22t41.5 9
q6 0 12.5 -2t11.5 -8t8.5 -16.5t2.5 -27.5z" />
    <glyph glyph-name="afii10087" unicode="&#x445;" horiz-adv-x="472" 
d="M433 87q3 0 6 1t5 -6q3 -7 -5 -11q-73 -53 -138.5 -78t-111.5 -23q-62 3 -99 103q-23 -17 -58 -45.5t-84 -72.5q-7 -6 -16.5 -8.5t-11.5 6.5q0 14 62 63l97 76q-17 32 -36 41q-22 7 -22 18q0 23 34 26q26 0 43 -19q2 -4 8 -13t15 -24q24 19 47.5 34.5l46.5 29.5
q58 31 80 33h10t6 -5q2 -8 -3 -9.5t-15 -5.5l-32.5 -11.5t-17.5 -8.5q-63 -31 -114 -77l36 -57.5t47 -35.5q12 -4 32.5 -3.5t49 8.5t63.5 25.5t76 48.5z" />
    <glyph glyph-name="afii10088" unicode="&#x446;" horiz-adv-x="388" 
d="M235 -14l-40.5 -49l-35 -43.5l-37.5 -45l-47 -53.5q-38 -44 -64.5 -64.5t-40.5 -21.5q-3 0 -7.5 2.5t-7.5 6.5t-3.5 10t4.5 13q12 17 27.5 29.5t33.5 25.5l62 42t54 48q32 35 47.5 55.5t23.5 33.5q-10 -5 -23 -6t-24 -1q-25 1 -42.5 19.5t-14.5 59.5q-25 -26 -58.5 -47
t-64.5 -22q-8 -1 -17 0.5t-17.5 6t-14.5 13t-6 23.5q-2 34 30 66q14 15 43.5 36.5t74.5 50.5q8 0 5 -15q-27 -17 -52 -37q-48 -42 -49 -75q-1 -13 3 -23t15 -12q27 -6 49.5 9.5t43.5 33.5q11 8 28 28.5l41 51.5q36 46 50 46t15 -11q0 -11 -38 -46q-18 -17 -26.5 -30
t-10.5 -28q-2 -11 0.5 -27t10.5 -27t13.5 -14t24.5 -4q17 -1 26 7t14 19l10 22t15 16q11 4 15 -2.5t1 -18.5t-12.5 -26.5t-26.5 -24.5z" />
    <glyph glyph-name="afii10089" unicode="&#x447;" horiz-adv-x="413" 
d="M379 89q4 2 6.5 2t4.5 -7q0 -7 -5 -11q-36 -24 -73.5 -44t-73.5 -34t-68.5 -22t-58.5 -6q-29 2 -43 17t-14 40q0 13 7 25.5t18 25.5t25 27t28 30q-15 -3 -30.5 -4.5t-27.5 -2.5q-14 -1 -27 -1l-37.5 -25.5l-23 -16.5t-17.5 -12l-20 -12q-4 -1 -6 -1t-4 6q0 3 4.5 6t9.5 7
q19 11 38.5 26t36.5 30q-5 4 -8 15q0 19 34 56q17 18 31 26.5t25 10.5q16 0 18 -15q0 -24 -33 -55q21 5 34.5 7t21.5 3q28 0 30 -21q0 -23 -43 -63q-21 -20 -32 -34.5t-11 -26.5q0 -18 11.5 -27t26.5 -11q33 -2 68 6.5t67.5 22.5t61 31t49.5 32z" />
    <glyph glyph-name="afii10090" unicode="&#x448;" horiz-adv-x="642" 
d="M172 -32q-20 3 -31 12.5t-17 21.5t-7.5 24.5t-0.5 20.5l-30 -21.5t-37 -23.5t-37 -18.5t-30 -7.5q-16 1 -29 13t-15 32q0 33 29 67q15 14 44 35.5t74 50.5q6 0 7 -3.5t0 -10.5l-26 -18l-27 -19q-23 -20 -34.5 -39t-14 -34.5t2.5 -25.5t15 -11t22.5 3t25.5 11.5t25 16
t22 16.5q11 8 27.5 26.5t39.5 48.5q17 23 30 34t21 12q13 0 14 -12q0 -10 -38 -45q-36 -36 -36 -58q0 -11 -2.5 -23.5t5.5 -23.5q9 -14 17.5 -15.5t20.5 -1.5q13 0 25.5 6t23 14t19 17.5l13.5 15.5q8 9 28 29.5t43 50.5q17 23 30 34t21 12q12 0 13 -12q0 -5 -8.5 -16
t-28.5 -29q-18 -17 -26.5 -29t-9.5 -29q-3 -23 5.5 -40.5t34.5 -19.5q25 -2 45.5 0.5t44 11.5t54.5 25.5l78 43.5q8 3 11 -5q2 -3 0 -6.5t-3 -4.5q-38 -24 -76 -43.5t-73 -33t-64 -20t-47 -6.5q-32 2 -46.5 25.5t-8.5 53.5q-9 -8 -22 -22.5t-29.5 -28t-36 -22.5t-40.5 -6z
" />
    <glyph glyph-name="afii10091" unicode="&#x449;" horiz-adv-x="551" 
d="M337 -32q-17 -1 -28.5 6t-18.5 18t-9.5 25.5t0.5 29.5q-8 -8 -21 -23t-29.5 -28.5t-36 -22t-40.5 -5.5q-20 3 -31.5 13t-17.5 22t-7.5 24t-0.5 20l-30 -21.5t-36.5 -23.5t-36.5 -18.5t-30 -7.5q-17 0 -30 12.5t-15 32.5q0 35 31 66q27 29 117 87q10 0 6 -15
q-13 -8 -25.5 -17t-25.5 -20q-24 -20 -36 -39t-14.5 -34.5t2.5 -25.5t15 -11q11 -1 23.5 3.5t25.5 11.5t25 15.5t22 16.5q11 8 27 26.5t39 49.5q36 46 52 46q13 0 13 -11q0 -5 -8.5 -16.5t-28.5 -29.5q-35 -32 -37 -58q0 -11 -2 -23.5t5 -23.5q10 -14 18.5 -15.5t20.5 -1.5
q13 0 25.5 6t23 14t18.5 17.5t14 15.5l27.5 28.5t42.5 51.5q36 46 51 46q14 0 14 -11q0 -5 -8.5 -16.5t-28.5 -29.5q-19 -17 -27 -29t-10 -29q-1 -11 1 -23.5t8.5 -22.5t18.5 -15.5t31 -2.5q13 2 18.5 9t9.5 16t9.5 17.5t17.5 13.5q12 4 16.5 -0.5t2 -15t-12.5 -25.5
t-28 -31l-40.5 -49l-34.5 -43.5l-37 -45t-48 -53.5q-77 -85 -105 -86q-3 0 -7.5 2.5t-7.5 6.5t-3.5 10t4.5 13q12 17 27.5 29.5t33.5 25.5l30 21.5l25.5 19.5l25 21t27.5 26q16 16 30.5 32t26 30t18.5 24.5t9 15.5q-11 -8 -27 -13t-28 -5z" />
    <glyph glyph-name="afii10092" unicode="&#x44a;" horiz-adv-x="451" 
d="M198 245q-62 -76 -91.5 -121.5t-29.5 -75.5q0 -26 14 -35.5t34 -9.5q53 0 107 76q17 25 24.5 43.5t7.5 31.5t-6 20t-16 9q-11 3 -19.5 0t-19.5 -16q-17 -24 -18 -43q0 -10 9 -16q5 -4 7 -6t2 -5q0 -11 -18 -12q-25 0 -25 34q0 41 43 74q18 15 31 20.5t29 3.5q21 0 31 -13
t8 -34.5t-16.5 -51t-42.5 -63.5q-38 -47 -78 -69t-81 -23q-53 0 -56 56q0 51 64 137q22 29 49 55t53 64q9 14 14.5 21.5t5.5 17.5q0 6 -4 8.5t-9.5 2.5t-12 -1.5l-10.5 -2.5q-22 -5 -48 -14t-46 -20q-3 0 -8.5 3t-5.5 8q1 2 13 7.5t31 12l43 14.5l47 15.5l44 14l35 10.5
q14 1 15 -8q0 -9 -18 -28l-16.5 -17l-22.5 -24l-23.5 -26.5z" />
    <glyph glyph-name="afii10093" unicode="&#x44b;" horiz-adv-x="530" 
d="M513 80q0 -8 -3 -11q-69 -45 -124.5 -66t-93.5 -25q-14 -2 -28 -0.5t-25 7.5t-18 18t-7 32q0 22 17 51.5t35 51.5l-32 -11.5t-38 -12.5q-7 -14 -17 -28t-23 -30q-77 -92 -159 -93q-55 0 -56 56q0 26 19.5 61t49.5 80q20 28 38.5 51.5t30.5 49.5q14 29 35 40t37 15
q7 2 17 3t11 -11q0 -11 -19 -32t-54 -52q-47 -42 -79.5 -89.5t-37.5 -85.5q-2 -19 8.5 -33.5t40.5 -12.5q28 2 54 20t52 56q5 7 8.5 12.5t5.5 11.5q-22 -9 -36 -10t-25 1q-3 1 -7.5 3.5t-8.5 7.5t-5.5 11.5t0.5 14.5q5 21 27 36.5t48 19.5q13 2 26 0.5t22 -8t11 -18.5
t-6 -32q40 11 67 25.5t44 19.5q13 0 13 -9q0 -8 -32 -44q-28 -36 -30 -68q0 -20 8.5 -32.5t27.5 -14.5q14 0 35.5 3t48 11t56.5 23.5t60 40.5q1 1 8 1q2 0 3 -5zM168 121q14 29 -4 43q-10 8 -22.5 6.5t-20.5 -9.5t-11 -17t2 -19q7 -15 25 -13.5t31 9.5z" />
    <glyph glyph-name="afii10094" unicode="&#x44c;" horiz-adv-x="327" 
d="M128 60q20 20 30.5 41t12.5 38.5t-3.5 29.5t-17.5 14q-21 6 -38 -13t-19 -54q-3 -25 9.5 -35.5zM148 49q16 -5 34 -3t35 7.5t32 13.5t24 16q5 4 12.5 3.5t8.5 -3.5q3 -12 -6 -18.5t-23 -13.5q-20 -10 -55 -16.5t-77 -1.5q-34 -35 -69 -52t-70 -18q-56 0 -56 56
q0 26 17.5 59t50.5 77q37 50 62.5 81t41.5 59q13 22 23.5 32.5t23.5 18.5q7 1 16 -0.5t11 -9.5q0 -5 -0.5 -8t-8.5 -11q-6 -5 -14.5 -13.5l-18.5 -19t-19 -21l-16 -18.5l-47.5 -58.5t-39 -54.5t-26 -47.5t-9.5 -36.5q0 -19 15 -32q16 -13 35 -13q40 0 79 40q-16 11 -32 27.5
t-14 45.5q1 18 11 36t25 33t33 24t35 8q22 0 28 -27.5t-4 -61.5q-5 -15 -13 -29.5t-16 -25.5q-9 -13 -19 -24z" />
    <glyph glyph-name="afii10095" unicode="&#x44d;" horiz-adv-x="328" 
d="M79 84q-5 -2 -10 -1t-7 7q-2 5 4.5 9.5t11.5 4.5q11 2 24.5 2t28.5 1q7 0 15 0.5t16 1.5q9 1 17 1q3 8 8 18t3 26q-2 9 -10.5 13t-26.5 5q-15 0 -34.5 -6.5t-38 -16.5t-35.5 -22t-28 -23q-2 0 -3 3q-1 2 -0.5 5.5t5.5 9.5q18 20 36.5 33t44.5 24q45 22 86 22q43 0 44 -36
q0 -14 -10 -38t-30 -45q-32 -32 -60.5 -52t-53 -31t-43.5 -15t-31 -3q-14 2 -24.5 10.5t-10.5 22.5q0 15 6.5 23t15.5 9q9 0 12 -4.5t9 -15.5q7 -16 30 -16q10 0 28 5.5t37 16t35.5 26t25.5 35.5q-26 4 -44.5 1t-42.5 -10z" />
    <glyph glyph-name="afii10096" unicode="&#x44e;" horiz-adv-x="436" 
d="M206 36q-12 11 -17 26.5t-4.5 31.5t6 31t14.5 24q-60 -28 -88.5 -56t-32.5 -59q-2 -18 6.5 -27t24.5 -10q41 0 91 39zM282 146q0 17 -19 18q-21 0 -38 -20q-8 -10 -12 -21t-6 -22q0 -37 15 -49q59 48 60 94zM67 72q-13 -5 -32.5 -14.5t-43.5 -17.5l-19.5 -20l-20 -21
t-16.5 -16.5t-8 -6.5q-9 -1 -12 3t-3 8q0 11 38 67q22 31 34 49.5t16 26.5q0 8 -5 8.5t-5 5.5q0 9 10 17.5t32 11.5q11 2 21 -3.5t5 -22.5q-1 -4 -8 -15l-15 -24t-16.5 -25l-12.5 -18q12 4 21 8t17 8l16 8t18 10q12 7 21.5 12t18.5 13q74 62 127 62q52 0 52 -48
q0 -53 -60 -104q6 -7 14 -9.5t18 -3.5q17 -2 51 6t73 40q3 -1 5 -2q5 -3 2 -7q-41 -34 -75.5 -46.5t-58.5 -11.5q-29 0 -49 19q-11 -9 -25.5 -18.5t-31 -18t-34 -14t-34.5 -5.5q-52 0 -52 41q0 14 7 31.5t20 36.5z" />
    <glyph glyph-name="afii10097" unicode="&#x44f;" horiz-adv-x="466" 
d="M237 226q-11 8 -23.5 8t-24.5 -6.5t-21.5 -18t-13.5 -25.5q-6 -22 4.5 -39.5t43.5 -17.5q20 12 31 26.5t14.5 28.5t0.5 26t-11 18zM52 -6q-17 -9 -34.5 -13t-32.5 -1.5t-26 12t-14 27.5q-3 16 0.5 32.5t18.5 27.5q16 13 29.5 11t13.5 -12q-3 -9 -5 -19.5t-1 -20
t5.5 -16.5t14.5 -9q7 -1 19 1.5t26 10.5q15 8 32 20l33.5 24l31 23t23.5 17q-26 -4 -45.5 4t-24.5 25q-6 18 0.5 37t19.5 34q17 17 39.5 30.5t42.5 15.5q33 4 47 -7.5t15 -29t-7.5 -36.5t-19.5 -30q3 0 9.5 4t13 7.5t12 3.5t6.5 -9q0 -12 -14 -27t-36 -36q-21 -19 -28 -34
t-8 -27q0 -14 10 -27t30 -15q16 -1 33 1t38.5 11t50.5 25.5t68 43.5q2 2 6 2q2 0 5 -5q0 -9 -5 -11q-49 -30 -83 -48.5t-58.5 -29t-42.5 -14t-36 -1.5q-31 2 -46.5 17t-11.5 40q1 7 10.5 19.5l21.5 27l25 30t22 29.5l-22 -8q-6 -4 -26.5 -20.5l-46 -37t-52.5 -40t-46 -29.5z
" />
    <glyph glyph-name="hyphenminus" horiz-adv-x="372" 
d="M352 192q0 -10 -28 -10q-10 0 -27 4q-8 2 -14 3t-11 3q-26 0 -51 -2.5t-51 -7.5q-23 -4 -35 -5.5t-15 -3.5q-31 0 -45 13q-30 20 -32 32q0 4 8 4q3 0 10.5 -1t19.5 -3q11 -2 20 -2h15q2 0 16.5 1.5t41.5 5.5q27 3 49 4.5t42 3.5q31 0 61 -15q26 -14 26 -24z" />
    <glyph glyph-name="space" unicode=" " horiz-adv-x="238" 
 />
    <glyph glyph-name="space" unicode="&#xa0;" horiz-adv-x="238" 
 />
    </font>
</defs>
</svg>
